<?xml version="1.0" encoding="UTF-8" standalone="no"?><svg xmlns="http://www.w3.org/2000/svg" xmlns:xlink="http://www.w3.org/1999/xlink" contentScriptType="application/ecmascript" contentStyleType="text/css" height="246px" preserveAspectRatio="none" style="width:234px;height:246px;" version="1.1" viewBox="0 0 234 246" width="234px" zoomAndPan="magnify"><defs><filter height="300%" id="ft5720mm2au07" width="300%" x="-1" y="-1"><feGaussianBlur result="blurOut" stdDeviation="2.0"/><feColorMatrix in="blurOut" result="blurOut2" type="matrix" values="0 0 0 0 0 0 0 0 0 0 0 0 0 0 0 0 0 0 .4 0"/><feOffset dx="4.0" dy="4.0" in="blurOut2" result="blurOut3"/><feBlend in="SourceGraphic" in2="blurOut3" mode="normal"/></filter></defs><g><!--MD5=[79d8edbcc1568d03c30ea71d2d6556d3]
class articles--><rect fill="#F8F8F8" filter="url(#ft5720mm2au07)" height="94.4141" id="articles" style="stroke: #383838; stroke-width: 1.5;" width="217" x="6" y="8"/><ellipse cx="87.25" cy="24" fill="#C2C2C2" rx="11" ry="11" style="stroke: #383838; stroke-width: 1.0;"/><path d="M86.0469,24.875 L87.5,24.875 L87.5,24.9844 C87.5,25.3906 87.5313,25.5469 87.6094,25.7031 C87.7656,25.9531 88.0469,26.1094 88.3438,26.1094 C88.5938,26.1094 88.8594,25.9688 89.0156,25.75 C89.1406,25.5938 89.1719,25.4375 89.1719,24.9844 L89.1719,23.0625 C89.1719,22.9063 89.1719,22.8594 89.1563,22.7031 C89.0938,22.2344 88.7813,21.9219 88.3281,21.9219 C88.0781,21.9219 87.8125,22.0625 87.6406,22.2813 C87.5313,22.4531 87.5,22.6094 87.5,23.0625 L87.5,23.1875 L86.0469,23.1875 L86.0469,20.7813 L90.0313,20.7813 L90.0313,21.6406 C90.0313,22.0469 90.0625,22.2188 90.1406,22.375 C90.3125,22.625 90.5938,22.7813 90.875,22.7813 C91.1406,22.7813 91.4063,22.6406 91.5781,22.4219 C91.6875,22.25 91.7188,22.1094 91.7188,21.6406 L91.7188,19.0938 L84.0938,19.0938 C83.6563,19.0938 83.5313,19.1094 83.375,19.2031 C83.125,19.3594 82.9688,19.6563 82.9688,19.9375 C82.9688,20.2188 83.1094,20.4688 83.3281,20.6406 C83.4844,20.75 83.6719,20.7813 84.0938,20.7813 L84.3438,20.7813 L84.3438,27.2969 L84.0938,27.2969 C83.6875,27.2969 83.5313,27.3125 83.375,27.4219 C83.125,27.5938 82.9688,27.8594 82.9688,28.1563 C82.9688,28.4219 83.1094,28.6719 83.3281,28.8281 C83.4688,28.9531 83.7031,29 84.0938,29 L92.0938,29 L92.0938,26.4219 C92.0938,25.9844 92.0625,25.8438 91.9844,25.6875 C91.8125,25.4375 91.5313,25.2813 91.25,25.2813 C90.9844,25.2813 90.7188,25.3906 90.5469,25.6406 C90.4375,25.7969 90.4063,25.9375 90.4063,26.4219 L90.4063,27.2969 L86.0469,27.2969 L86.0469,24.875 Z "/><text fill="#000000" font-family="sans-serif" font-size="12" lengthAdjust="spacingAndGlyphs" textLength="46" x="107.75" y="28.1543">articles</text><line style="stroke: #383838; stroke-width: 1.5;" x1="7" x2="222" y1="40" y2="40"/><ellipse cx="17" cy="51" fill="#000000" rx="3" ry="3" style="stroke: #000000; stroke-width: 1.0;"/><text fill="#000000" font-family="sans-serif" font-size="11" lengthAdjust="spacingAndGlyphs" textLength="63" x="26" y="54.2104">id : integer</text><line style="stroke: #383838; stroke-width: 1.0;" x1="7" x2="222" y1="60.8047" y2="60.8047"/><ellipse cx="17" cy="71.8047" fill="#000000" rx="3" ry="3" style="stroke: #000000; stroke-width: 1.0;"/><text fill="#000000" font-family="sans-serif" font-size="11" lengthAdjust="spacingAndGlyphs" textLength="96" x="26" y="75.0151">user_id : integer</text><line style="stroke: #383838; stroke-width: 1.0;" x1="7" x2="222" y1="81.6094" y2="81.6094"/><text fill="#000000" font-family="sans-serif" font-size="11" lengthAdjust="spacingAndGlyphs" textLength="205" x="12" y="95.8198">index_user_id_on_articles (user_id)</text><!--MD5=[8413f8248b2da7966d2de021109ec289]
class users--><rect fill="#F8F8F8" filter="url(#ft5720mm2au07)" height="73.6094" id="users" style="stroke: #383838; stroke-width: 1.5;" width="89" x="70" y="162"/><ellipse cx="95.35" cy="178" fill="#C2C2C2" rx="11" ry="11" style="stroke: #383838; stroke-width: 1.0;"/><path d="M94.1469,178.875 L95.6,178.875 L95.6,178.9844 C95.6,179.3906 95.6313,179.5469 95.7094,179.7031 C95.8656,179.9531 96.1469,180.1094 96.4438,180.1094 C96.6938,180.1094 96.9594,179.9688 97.1156,179.75 C97.2406,179.5938 97.2719,179.4375 97.2719,178.9844 L97.2719,177.0625 C97.2719,176.9063 97.2719,176.8594 97.2563,176.7031 C97.1938,176.2344 96.8813,175.9219 96.4281,175.9219 C96.1781,175.9219 95.9125,176.0625 95.7406,176.2813 C95.6313,176.4531 95.6,176.6094 95.6,177.0625 L95.6,177.1875 L94.1469,177.1875 L94.1469,174.7813 L98.1313,174.7813 L98.1313,175.6406 C98.1313,176.0469 98.1625,176.2188 98.2406,176.375 C98.4125,176.625 98.6938,176.7813 98.975,176.7813 C99.2406,176.7813 99.5063,176.6406 99.6781,176.4219 C99.7875,176.25 99.8188,176.1094 99.8188,175.6406 L99.8188,173.0938 L92.1938,173.0938 C91.7563,173.0938 91.6313,173.1094 91.475,173.2031 C91.225,173.3594 91.0688,173.6563 91.0688,173.9375 C91.0688,174.2188 91.2094,174.4688 91.4281,174.6406 C91.5844,174.75 91.7719,174.7813 92.1938,174.7813 L92.4438,174.7813 L92.4438,181.2969 L92.1938,181.2969 C91.7875,181.2969 91.6313,181.3125 91.475,181.4219 C91.225,181.5938 91.0688,181.8594 91.0688,182.1563 C91.0688,182.4219 91.2094,182.6719 91.4281,182.8281 C91.5688,182.9531 91.8031,183 92.1938,183 L100.1938,183 L100.1938,180.4219 C100.1938,179.9844 100.1625,179.8438 100.0844,179.6875 C99.9125,179.4375 99.6313,179.2813 99.35,179.2813 C99.0844,179.2813 98.8188,179.3906 98.6469,179.6406 C98.5375,179.7969 98.5063,179.9375 98.5063,180.4219 L98.5063,181.2969 L94.1469,181.2969 L94.1469,178.875 Z "/><text fill="#000000" font-family="sans-serif" font-size="12" lengthAdjust="spacingAndGlyphs" textLength="34" x="111.65" y="182.1543">users</text><line style="stroke: #383838; stroke-width: 1.5;" x1="71" x2="158" y1="194" y2="194"/><ellipse cx="81" cy="205" fill="#000000" rx="3" ry="3" style="stroke: #000000; stroke-width: 1.0;"/><text fill="#000000" font-family="sans-serif" font-size="11" lengthAdjust="spacingAndGlyphs" textLength="63" x="90" y="208.2104">id : integer</text><line style="stroke: #383838; stroke-width: 1.0;" x1="71" x2="158" y1="214.8047" y2="214.8047"/><text fill="#000000" font-family="sans-serif" font-size="11" lengthAdjust="spacingAndGlyphs" textLength="67" x="76" y="229.0151">name : text</text><!--MD5=[ecdc84a09e61f5b87dd8dadf07c1ea39]
reverse link articles to users--><path d="M114.5,110.382 C114.5,127.508 114.5,146.0003 114.5,161.5626 " fill="none" id="articles&lt;-users" style="stroke: #383838; stroke-width: 1.0;"/><line style="stroke: #383838; stroke-width: 1.0;" x1="114.5" x2="106.5" y1="110.103" y2="102.103"/><line style="stroke: #383838; stroke-width: 1.0;" x1="114.5" x2="122.5" y1="110.103" y2="102.103"/><line style="stroke: #383838; stroke-width: 1.0;" x1="114.5" x2="114.5" y1="110.103" y2="102.103"/></g></svg>