<?xml version="1.0" encoding="UTF-8" standalone="no"?><svg xmlns="http://www.w3.org/2000/svg" xmlns:xlink="http://www.w3.org/1999/xlink" contentScriptType="application/ecmascript" contentStyleType="text/css" height="406px" preserveAspectRatio="none" style="width:979px;height:406px;" version="1.1" viewBox="0 0 979 406" width="979px" zoomAndPan="magnify"><defs><filter height="300%" id="f2j2d3tda89bh" width="300%" x="-1" y="-1"><feGaussianBlur result="blurOut" stdDeviation="2.0"/><feColorMatrix in="blurOut" result="blurOut2" type="matrix" values="0 0 0 0 0 0 0 0 0 0 0 0 0 0 0 0 0 0 .4 0"/><feOffset dx="4.0" dy="4.0" in="blurOut2" result="blurOut3"/><feBlend in="SourceGraphic" in2="blurOut3" mode="normal"/></filter></defs><g><!--MD5=[79d8edbcc1568d03c30ea71d2d6556d3]
class articles--><rect fill="#F8F8F8" filter="url(#f2j2d3tda89bh)" height="73.6094" id="articles" style="stroke: #383838; stroke-width: 1.5;" width="122" x="688.5" y="165"/><ellipse cx="723.3" cy="181" fill="#C2C2C2" rx="11" ry="11" style="stroke: #383838; stroke-width: 1.0;"/><path d="M722.0969,181.875 L723.55,181.875 L723.55,181.9844 C723.55,182.3906 723.5813,182.5469 723.6594,182.7031 C723.8156,182.9531 724.0969,183.1094 724.3938,183.1094 C724.6438,183.1094 724.9094,182.9688 725.0656,182.75 C725.1906,182.5938 725.2219,182.4375 725.2219,181.9844 L725.2219,180.0625 C725.2219,179.9063 725.2219,179.8594 725.2063,179.7031 C725.1438,179.2344 724.8313,178.9219 724.3781,178.9219 C724.1281,178.9219 723.8625,179.0625 723.6906,179.2813 C723.5813,179.4531 723.55,179.6094 723.55,180.0625 L723.55,180.1875 L722.0969,180.1875 L722.0969,177.7813 L726.0813,177.7813 L726.0813,178.6406 C726.0813,179.0469 726.1125,179.2188 726.1906,179.375 C726.3625,179.625 726.6438,179.7813 726.925,179.7813 C727.1906,179.7813 727.4563,179.6406 727.6281,179.4219 C727.7375,179.25 727.7688,179.1094 727.7688,178.6406 L727.7688,176.0938 L720.1438,176.0938 C719.7063,176.0938 719.5813,176.1094 719.425,176.2031 C719.175,176.3594 719.0188,176.6563 719.0188,176.9375 C719.0188,177.2188 719.1594,177.4688 719.3781,177.6406 C719.5344,177.75 719.7219,177.7813 720.1438,177.7813 L720.3938,177.7813 L720.3938,184.2969 L720.1438,184.2969 C719.7375,184.2969 719.5813,184.3125 719.425,184.4219 C719.175,184.5938 719.0188,184.8594 719.0188,185.1563 C719.0188,185.4219 719.1594,185.6719 719.3781,185.8281 C719.5188,185.9531 719.7531,186 720.1438,186 L728.1438,186 L728.1438,183.4219 C728.1438,182.9844 728.1125,182.8438 728.0344,182.6875 C727.8625,182.4375 727.5813,182.2813 727.3,182.2813 C727.0344,182.2813 726.7688,182.3906 726.5969,182.6406 C726.4875,182.7969 726.4563,182.9375 726.4563,183.4219 L726.4563,184.2969 L722.0969,184.2969 L722.0969,181.875 Z "/><text fill="#000000" font-family="sans-serif" font-size="12" lengthAdjust="spacingAndGlyphs" textLength="46" x="741.7" y="185.1543">articles</text><line style="stroke: #383838; stroke-width: 1.5;" x1="689.5" x2="809.5" y1="197" y2="197"/><ellipse cx="699.5" cy="208" fill="#000000" rx="3" ry="3" style="stroke: #000000; stroke-width: 1.0;"/><text fill="#000000" font-family="sans-serif" font-size="11" lengthAdjust="spacingAndGlyphs" textLength="63" x="708.5" y="211.2104">id : integer</text><line style="stroke: #383838; stroke-width: 1.0;" x1="689.5" x2="809.5" y1="217.8047" y2="217.8047"/><ellipse cx="699.5" cy="228.8047" fill="#000000" rx="3" ry="3" style="stroke: #000000; stroke-width: 1.0;"/><text fill="#000000" font-family="sans-serif" font-size="11" lengthAdjust="spacingAndGlyphs" textLength="96" x="708.5" y="232.0151">user_id : integer</text><!--MD5=[ffea0c25cc794db9280a5614eef8b091]
class comments--><rect fill="#F8F8F8" filter="url(#f2j2d3tda89bh)" height="73.6094" id="comments" style="stroke: #383838; stroke-width: 1.5;" width="131" x="505" y="8"/><ellipse cx="535.75" cy="24" fill="#C2C2C2" rx="11" ry="11" style="stroke: #383838; stroke-width: 1.0;"/><path d="M534.5469,24.875 L536,24.875 L536,24.9844 C536,25.3906 536.0313,25.5469 536.1094,25.7031 C536.2656,25.9531 536.5469,26.1094 536.8438,26.1094 C537.0938,26.1094 537.3594,25.9688 537.5156,25.75 C537.6406,25.5938 537.6719,25.4375 537.6719,24.9844 L537.6719,23.0625 C537.6719,22.9063 537.6719,22.8594 537.6563,22.7031 C537.5938,22.2344 537.2813,21.9219 536.8281,21.9219 C536.5781,21.9219 536.3125,22.0625 536.1406,22.2813 C536.0313,22.4531 536,22.6094 536,23.0625 L536,23.1875 L534.5469,23.1875 L534.5469,20.7813 L538.5313,20.7813 L538.5313,21.6406 C538.5313,22.0469 538.5625,22.2188 538.6406,22.375 C538.8125,22.625 539.0938,22.7813 539.375,22.7813 C539.6406,22.7813 539.9063,22.6406 540.0781,22.4219 C540.1875,22.25 540.2188,22.1094 540.2188,21.6406 L540.2188,19.0938 L532.5938,19.0938 C532.1563,19.0938 532.0313,19.1094 531.875,19.2031 C531.625,19.3594 531.4688,19.6563 531.4688,19.9375 C531.4688,20.2188 531.6094,20.4688 531.8281,20.6406 C531.9844,20.75 532.1719,20.7813 532.5938,20.7813 L532.8438,20.7813 L532.8438,27.2969 L532.5938,27.2969 C532.1875,27.2969 532.0313,27.3125 531.875,27.4219 C531.625,27.5938 531.4688,27.8594 531.4688,28.1563 C531.4688,28.4219 531.6094,28.6719 531.8281,28.8281 C531.9688,28.9531 532.2031,29 532.5938,29 L540.5938,29 L540.5938,26.4219 C540.5938,25.9844 540.5625,25.8438 540.4844,25.6875 C540.3125,25.4375 540.0313,25.2813 539.75,25.2813 C539.4844,25.2813 539.2188,25.3906 539.0469,25.6406 C538.9375,25.7969 538.9063,25.9375 538.9063,26.4219 L538.9063,27.2969 L534.5469,27.2969 L534.5469,24.875 Z "/><text fill="#000000" font-family="sans-serif" font-size="12" lengthAdjust="spacingAndGlyphs" textLength="64" x="553.25" y="28.1543">comments</text><line style="stroke: #383838; stroke-width: 1.5;" x1="506" x2="635" y1="40" y2="40"/><ellipse cx="516" cy="51" fill="#000000" rx="3" ry="3" style="stroke: #000000; stroke-width: 1.0;"/><text fill="#000000" font-family="sans-serif" font-size="11" lengthAdjust="spacingAndGlyphs" textLength="63" x="525" y="54.2104">id : integer</text><line style="stroke: #383838; stroke-width: 1.0;" x1="506" x2="635" y1="60.8047" y2="60.8047"/><ellipse cx="516" cy="71.8047" fill="#000000" rx="3" ry="3" style="stroke: #000000; stroke-width: 1.0;"/><text fill="#000000" font-family="sans-serif" font-size="11" lengthAdjust="spacingAndGlyphs" textLength="105" x="525" y="75.0151">article_id : integer</text><!--MD5=[00e75c9f542dcd9a46e7d41c30801c06]
class followers--><rect fill="#F8F8F8" filter="url(#f2j2d3tda89bh)" height="120.0234" id="followers" style="stroke: #383838; stroke-width: 1.5;" width="449" x="6" y="142"/><ellipse cx="198.25" cy="158" fill="#C2C2C2" rx="11" ry="11" style="stroke: #383838; stroke-width: 1.0;"/><path d="M197.0469,158.875 L198.5,158.875 L198.5,158.9844 C198.5,159.3906 198.5313,159.5469 198.6094,159.7031 C198.7656,159.9531 199.0469,160.1094 199.3438,160.1094 C199.5938,160.1094 199.8594,159.9688 200.0156,159.75 C200.1406,159.5938 200.1719,159.4375 200.1719,158.9844 L200.1719,157.0625 C200.1719,156.9063 200.1719,156.8594 200.1563,156.7031 C200.0938,156.2344 199.7813,155.9219 199.3281,155.9219 C199.0781,155.9219 198.8125,156.0625 198.6406,156.2813 C198.5313,156.4531 198.5,156.6094 198.5,157.0625 L198.5,157.1875 L197.0469,157.1875 L197.0469,154.7813 L201.0313,154.7813 L201.0313,155.6406 C201.0313,156.0469 201.0625,156.2188 201.1406,156.375 C201.3125,156.625 201.5938,156.7813 201.875,156.7813 C202.1406,156.7813 202.4063,156.6406 202.5781,156.4219 C202.6875,156.25 202.7188,156.1094 202.7188,155.6406 L202.7188,153.0938 L195.0938,153.0938 C194.6563,153.0938 194.5313,153.1094 194.375,153.2031 C194.125,153.3594 193.9688,153.6563 193.9688,153.9375 C193.9688,154.2188 194.1094,154.4688 194.3281,154.6406 C194.4844,154.75 194.6719,154.7813 195.0938,154.7813 L195.3438,154.7813 L195.3438,161.2969 L195.0938,161.2969 C194.6875,161.2969 194.5313,161.3125 194.375,161.4219 C194.125,161.5938 193.9688,161.8594 193.9688,162.1563 C193.9688,162.4219 194.1094,162.6719 194.3281,162.8281 C194.4688,162.9531 194.7031,163 195.0938,163 L203.0938,163 L203.0938,160.4219 C203.0938,159.9844 203.0625,159.8438 202.9844,159.6875 C202.8125,159.4375 202.5313,159.2813 202.25,159.2813 C201.9844,159.2813 201.7188,159.3906 201.5469,159.6406 C201.4375,159.7969 201.4063,159.9375 201.4063,160.4219 L201.4063,161.2969 L197.0469,161.2969 L197.0469,158.875 Z "/><text fill="#000000" font-family="sans-serif" font-size="12" lengthAdjust="spacingAndGlyphs" textLength="56" x="218.75" y="162.1543">followers</text><line style="stroke: #383838; stroke-width: 1.5;" x1="7" x2="454" y1="174" y2="174"/><ellipse cx="17" cy="185" fill="#000000" rx="3" ry="3" style="stroke: #000000; stroke-width: 1.0;"/><text fill="#000000" font-family="sans-serif" font-size="11" lengthAdjust="spacingAndGlyphs" textLength="63" x="26" y="188.2104">id : integer</text><line style="stroke: #383838; stroke-width: 1.0;" x1="7" x2="454" y1="194.8047" y2="194.8047"/><ellipse cx="17" cy="205.8047" fill="#000000" rx="3" ry="3" style="stroke: #000000; stroke-width: 1.0;"/><text fill="#000000" font-family="sans-serif" font-size="11" lengthAdjust="spacingAndGlyphs" textLength="96" x="26" y="209.0151">user_id : integer</text><ellipse cx="17" cy="218.6094" fill="#000000" rx="3" ry="3" style="stroke: #000000; stroke-width: 1.0;"/><text fill="#000000" font-family="sans-serif" font-size="11" lengthAdjust="spacingAndGlyphs" textLength="137" x="26" y="221.8198">target_user_id : integer</text><line style="stroke: #383838; stroke-width: 1.0;" x1="7" x2="454" y1="228.4141" y2="228.4141"/><rect fill="#808080" height="6" style="stroke: #595959; stroke-width: 1.0;" width="6" x="14" y="236.4141"/><text fill="#000000" font-family="sans-serif" font-size="11" lengthAdjust="spacingAndGlyphs" textLength="423" x="26" y="242.6245">index_target_user_id_and_user_id_on_followers (target_user_id, user_id)</text><text fill="#000000" font-family="sans-serif" font-size="11" lengthAdjust="spacingAndGlyphs" textLength="423" x="26" y="255.4292">index_user_id_and_target_user_id_on_followers (user_id, target_user_id)</text><!--MD5=[f465fa18fc6d53434f768b837a604e6d]
class followings--><rect fill="#F8F8F8" filter="url(#f2j2d3tda89bh)" height="86.4141" id="followings" style="stroke: #383838; stroke-width: 1.5;" width="163" x="490" y="159"/><ellipse cx="536.75" cy="175" fill="#C2C2C2" rx="11" ry="11" style="stroke: #383838; stroke-width: 1.0;"/><path d="M535.5469,175.875 L537,175.875 L537,175.9844 C537,176.3906 537.0313,176.5469 537.1094,176.7031 C537.2656,176.9531 537.5469,177.1094 537.8438,177.1094 C538.0938,177.1094 538.3594,176.9688 538.5156,176.75 C538.6406,176.5938 538.6719,176.4375 538.6719,175.9844 L538.6719,174.0625 C538.6719,173.9063 538.6719,173.8594 538.6563,173.7031 C538.5938,173.2344 538.2813,172.9219 537.8281,172.9219 C537.5781,172.9219 537.3125,173.0625 537.1406,173.2813 C537.0313,173.4531 537,173.6094 537,174.0625 L537,174.1875 L535.5469,174.1875 L535.5469,171.7813 L539.5313,171.7813 L539.5313,172.6406 C539.5313,173.0469 539.5625,173.2188 539.6406,173.375 C539.8125,173.625 540.0938,173.7813 540.375,173.7813 C540.6406,173.7813 540.9063,173.6406 541.0781,173.4219 C541.1875,173.25 541.2188,173.1094 541.2188,172.6406 L541.2188,170.0938 L533.5938,170.0938 C533.1563,170.0938 533.0313,170.1094 532.875,170.2031 C532.625,170.3594 532.4688,170.6563 532.4688,170.9375 C532.4688,171.2188 532.6094,171.4688 532.8281,171.6406 C532.9844,171.75 533.1719,171.7813 533.5938,171.7813 L533.8438,171.7813 L533.8438,178.2969 L533.5938,178.2969 C533.1875,178.2969 533.0313,178.3125 532.875,178.4219 C532.625,178.5938 532.4688,178.8594 532.4688,179.1563 C532.4688,179.4219 532.6094,179.6719 532.8281,179.8281 C532.9688,179.9531 533.2031,180 533.5938,180 L541.5938,180 L541.5938,177.4219 C541.5938,176.9844 541.5625,176.8438 541.4844,176.6875 C541.3125,176.4375 541.0313,176.2813 540.75,176.2813 C540.4844,176.2813 540.2188,176.3906 540.0469,176.6406 C539.9375,176.7969 539.9063,176.9375 539.9063,177.4219 L539.9063,178.2969 L535.5469,178.2969 L535.5469,175.875 Z "/><text fill="#000000" font-family="sans-serif" font-size="12" lengthAdjust="spacingAndGlyphs" textLength="61" x="557.25" y="179.1543">followings</text><line style="stroke: #383838; stroke-width: 1.5;" x1="491" x2="652" y1="191" y2="191"/><ellipse cx="501" cy="202" fill="#000000" rx="3" ry="3" style="stroke: #000000; stroke-width: 1.0;"/><text fill="#000000" font-family="sans-serif" font-size="11" lengthAdjust="spacingAndGlyphs" textLength="63" x="510" y="205.2104">id : integer</text><line style="stroke: #383838; stroke-width: 1.0;" x1="491" x2="652" y1="211.8047" y2="211.8047"/><ellipse cx="501" cy="222.8047" fill="#000000" rx="3" ry="3" style="stroke: #000000; stroke-width: 1.0;"/><text fill="#000000" font-family="sans-serif" font-size="11" lengthAdjust="spacingAndGlyphs" textLength="96" x="510" y="226.0151">user_id : integer</text><ellipse cx="501" cy="235.6094" fill="#000000" rx="3" ry="3" style="stroke: #000000; stroke-width: 1.0;"/><text fill="#000000" font-family="sans-serif" font-size="11" lengthAdjust="spacingAndGlyphs" textLength="137" x="510" y="238.8198">target_user_id : integer</text><!--MD5=[b71691ed90354d79c1e3bc54a90e3196]
class likes--><rect fill="#F8F8F8" filter="url(#f2j2d3tda89bh)" height="73.6094" id="likes" style="stroke: #383838; stroke-width: 1.5;" width="131" x="837" y="8"/><ellipse cx="884.25" cy="24" fill="#C2C2C2" rx="11" ry="11" style="stroke: #383838; stroke-width: 1.0;"/><path d="M883.0469,24.875 L884.5,24.875 L884.5,24.9844 C884.5,25.3906 884.5313,25.5469 884.6094,25.7031 C884.7656,25.9531 885.0469,26.1094 885.3438,26.1094 C885.5938,26.1094 885.8594,25.9688 886.0156,25.75 C886.1406,25.5938 886.1719,25.4375 886.1719,24.9844 L886.1719,23.0625 C886.1719,22.9063 886.1719,22.8594 886.1563,22.7031 C886.0938,22.2344 885.7813,21.9219 885.3281,21.9219 C885.0781,21.9219 884.8125,22.0625 884.6406,22.2813 C884.5313,22.4531 884.5,22.6094 884.5,23.0625 L884.5,23.1875 L883.0469,23.1875 L883.0469,20.7813 L887.0313,20.7813 L887.0313,21.6406 C887.0313,22.0469 887.0625,22.2188 887.1406,22.375 C887.3125,22.625 887.5938,22.7813 887.875,22.7813 C888.1406,22.7813 888.4063,22.6406 888.5781,22.4219 C888.6875,22.25 888.7188,22.1094 888.7188,21.6406 L888.7188,19.0938 L881.0938,19.0938 C880.6563,19.0938 880.5313,19.1094 880.375,19.2031 C880.125,19.3594 879.9688,19.6563 879.9688,19.9375 C879.9688,20.2188 880.1094,20.4688 880.3281,20.6406 C880.4844,20.75 880.6719,20.7813 881.0938,20.7813 L881.3438,20.7813 L881.3438,27.2969 L881.0938,27.2969 C880.6875,27.2969 880.5313,27.3125 880.375,27.4219 C880.125,27.5938 879.9688,27.8594 879.9688,28.1563 C879.9688,28.4219 880.1094,28.6719 880.3281,28.8281 C880.4688,28.9531 880.7031,29 881.0938,29 L889.0938,29 L889.0938,26.4219 C889.0938,25.9844 889.0625,25.8438 888.9844,25.6875 C888.8125,25.4375 888.5313,25.2813 888.25,25.2813 C887.9844,25.2813 887.7188,25.3906 887.5469,25.6406 C887.4375,25.7969 887.4063,25.9375 887.4063,26.4219 L887.4063,27.2969 L883.0469,27.2969 L883.0469,24.875 Z "/><text fill="#000000" font-family="sans-serif" font-size="12" lengthAdjust="spacingAndGlyphs" textLength="28" x="904.75" y="28.1543">likes</text><line style="stroke: #383838; stroke-width: 1.5;" x1="838" x2="967" y1="40" y2="40"/><ellipse cx="848" cy="51" fill="#000000" rx="3" ry="3" style="stroke: #000000; stroke-width: 1.0;"/><text fill="#000000" font-family="sans-serif" font-size="11" lengthAdjust="spacingAndGlyphs" textLength="105" x="857" y="54.2104">article_id : integer</text><ellipse cx="848" cy="63.8047" fill="#000000" rx="3" ry="3" style="stroke: #000000; stroke-width: 1.0;"/><text fill="#000000" font-family="sans-serif" font-size="11" lengthAdjust="spacingAndGlyphs" textLength="96" x="857" y="67.0151">user_id : integer</text><line style="stroke: #383838; stroke-width: 1.5;" x1="838" x2="967" y1="73.6094" y2="73.6094"/><!--MD5=[b2d851ba367528962b4efddfd4662824]
class revisions--><rect fill="#F8F8F8" filter="url(#f2j2d3tda89bh)" height="73.6094" id="revisions" style="stroke: #383838; stroke-width: 1.5;" width="131" x="671" y="8"/><ellipse cx="705.8" cy="24" fill="#C2C2C2" rx="11" ry="11" style="stroke: #383838; stroke-width: 1.0;"/><path d="M704.5969,24.875 L706.05,24.875 L706.05,24.9844 C706.05,25.3906 706.0813,25.5469 706.1594,25.7031 C706.3156,25.9531 706.5969,26.1094 706.8938,26.1094 C707.1438,26.1094 707.4094,25.9688 707.5656,25.75 C707.6906,25.5938 707.7219,25.4375 707.7219,24.9844 L707.7219,23.0625 C707.7219,22.9063 707.7219,22.8594 707.7063,22.7031 C707.6438,22.2344 707.3313,21.9219 706.8781,21.9219 C706.6281,21.9219 706.3625,22.0625 706.1906,22.2813 C706.0813,22.4531 706.05,22.6094 706.05,23.0625 L706.05,23.1875 L704.5969,23.1875 L704.5969,20.7813 L708.5813,20.7813 L708.5813,21.6406 C708.5813,22.0469 708.6125,22.2188 708.6906,22.375 C708.8625,22.625 709.1438,22.7813 709.425,22.7813 C709.6906,22.7813 709.9563,22.6406 710.1281,22.4219 C710.2375,22.25 710.2688,22.1094 710.2688,21.6406 L710.2688,19.0938 L702.6438,19.0938 C702.2063,19.0938 702.0813,19.1094 701.925,19.2031 C701.675,19.3594 701.5188,19.6563 701.5188,19.9375 C701.5188,20.2188 701.6594,20.4688 701.8781,20.6406 C702.0344,20.75 702.2219,20.7813 702.6438,20.7813 L702.8938,20.7813 L702.8938,27.2969 L702.6438,27.2969 C702.2375,27.2969 702.0813,27.3125 701.925,27.4219 C701.675,27.5938 701.5188,27.8594 701.5188,28.1563 C701.5188,28.4219 701.6594,28.6719 701.8781,28.8281 C702.0188,28.9531 702.2531,29 702.6438,29 L710.6438,29 L710.6438,26.4219 C710.6438,25.9844 710.6125,25.8438 710.5344,25.6875 C710.3625,25.4375 710.0813,25.2813 709.8,25.2813 C709.5344,25.2813 709.2688,25.3906 709.0969,25.6406 C708.9875,25.7969 708.9563,25.9375 708.9563,26.4219 L708.9563,27.2969 L704.5969,27.2969 L704.5969,24.875 Z "/><text fill="#000000" font-family="sans-serif" font-size="12" lengthAdjust="spacingAndGlyphs" textLength="55" x="724.2" y="28.1543">revisions</text><line style="stroke: #383838; stroke-width: 1.5;" x1="672" x2="801" y1="40" y2="40"/><ellipse cx="682" cy="51" fill="#000000" rx="3" ry="3" style="stroke: #000000; stroke-width: 1.0;"/><text fill="#000000" font-family="sans-serif" font-size="11" lengthAdjust="spacingAndGlyphs" textLength="63" x="691" y="54.2104">id : integer</text><line style="stroke: #383838; stroke-width: 1.0;" x1="672" x2="801" y1="60.8047" y2="60.8047"/><ellipse cx="682" cy="71.8047" fill="#000000" rx="3" ry="3" style="stroke: #000000; stroke-width: 1.0;"/><text fill="#000000" font-family="sans-serif" font-size="11" lengthAdjust="spacingAndGlyphs" textLength="105" x="691" y="75.0151">article_id : integer</text><!--MD5=[8413f8248b2da7966d2de021109ec289]
class users--><rect fill="#F8F8F8" filter="url(#f2j2d3tda89bh)" height="73.6094" id="users" style="stroke: #383838; stroke-width: 1.5;" width="89" x="616" y="322"/><ellipse cx="641.35" cy="338" fill="#C2C2C2" rx="11" ry="11" style="stroke: #383838; stroke-width: 1.0;"/><path d="M640.1469,338.875 L641.6,338.875 L641.6,338.9844 C641.6,339.3906 641.6313,339.5469 641.7094,339.7031 C641.8656,339.9531 642.1469,340.1094 642.4438,340.1094 C642.6938,340.1094 642.9594,339.9688 643.1156,339.75 C643.2406,339.5938 643.2719,339.4375 643.2719,338.9844 L643.2719,337.0625 C643.2719,336.9063 643.2719,336.8594 643.2563,336.7031 C643.1938,336.2344 642.8813,335.9219 642.4281,335.9219 C642.1781,335.9219 641.9125,336.0625 641.7406,336.2813 C641.6313,336.4531 641.6,336.6094 641.6,337.0625 L641.6,337.1875 L640.1469,337.1875 L640.1469,334.7813 L644.1313,334.7813 L644.1313,335.6406 C644.1313,336.0469 644.1625,336.2188 644.2406,336.375 C644.4125,336.625 644.6938,336.7813 644.975,336.7813 C645.2406,336.7813 645.5063,336.6406 645.6781,336.4219 C645.7875,336.25 645.8188,336.1094 645.8188,335.6406 L645.8188,333.0938 L638.1938,333.0938 C637.7563,333.0938 637.6313,333.1094 637.475,333.2031 C637.225,333.3594 637.0688,333.6563 637.0688,333.9375 C637.0688,334.2188 637.2094,334.4688 637.4281,334.6406 C637.5844,334.75 637.7719,334.7813 638.1938,334.7813 L638.4438,334.7813 L638.4438,341.2969 L638.1938,341.2969 C637.7875,341.2969 637.6313,341.3125 637.475,341.4219 C637.225,341.5938 637.0688,341.8594 637.0688,342.1563 C637.0688,342.4219 637.2094,342.6719 637.4281,342.8281 C637.5688,342.9531 637.8031,343 638.1938,343 L646.1938,343 L646.1938,340.4219 C646.1938,339.9844 646.1625,339.8438 646.0844,339.6875 C645.9125,339.4375 645.6313,339.2813 645.35,339.2813 C645.0844,339.2813 644.8188,339.3906 644.6469,339.6406 C644.5375,339.7969 644.5063,339.9375 644.5063,340.4219 L644.5063,341.2969 L640.1469,341.2969 L640.1469,338.875 Z "/><text fill="#000000" font-family="sans-serif" font-size="12" lengthAdjust="spacingAndGlyphs" textLength="34" x="657.65" y="342.1543">users</text><line style="stroke: #383838; stroke-width: 1.5;" x1="617" x2="704" y1="354" y2="354"/><ellipse cx="627" cy="365" fill="#000000" rx="3" ry="3" style="stroke: #000000; stroke-width: 1.0;"/><text fill="#000000" font-family="sans-serif" font-size="11" lengthAdjust="spacingAndGlyphs" textLength="63" x="636" y="368.2104">id : integer</text><line style="stroke: #383838; stroke-width: 1.0;" x1="617" x2="704" y1="374.8047" y2="374.8047"/><text fill="#000000" font-family="sans-serif" font-size="11" lengthAdjust="spacingAndGlyphs" textLength="67" x="622" y="389.0151">name : text</text><!--MD5=[ecdc84a09e61f5b87dd8dadf07c1ea39]
reverse link articles to users--><path d="M724.503,246.534 C710.855,270.304 694.155,299.3882 681.236,321.8871 " fill="none" id="articles&lt;-users" style="stroke: #383838; stroke-width: 1.0;"/><line style="stroke: #383838; stroke-width: 1.0;" x1="724.6487" x2="721.6958" y1="246.2782" y2="239.341"/><line style="stroke: #383838; stroke-width: 1.0;" x1="724.6487" x2="735.5702" y1="246.2782" y2="239.341"/><line style="stroke: #383838; stroke-width: 1.0;" x1="724.6487" x2="728.633" y1="246.2782" y2="239.341"/><!--MD5=[90b56babdbe2f4ab8c94b1a17f365ddd]
reverse link comments to articles--><path d="M618.657,87.7 C646.483,111.795 681.141,141.806 707.795,164.887 " fill="none" id="comments&lt;-articles" style="stroke: #383838; stroke-width: 1.0;"/><line style="stroke: #383838; stroke-width: 1.0;" x1="618.5154" x2="607.2307" y1="87.5783" y2="82.341"/><line style="stroke: #383838; stroke-width: 1.0;" x1="618.5154" x2="617.7053" y1="87.5783" y2="82.341"/><line style="stroke: #383838; stroke-width: 1.0;" x1="618.5154" x2="612.468" y1="87.5783" y2="82.341"/><!--MD5=[cf013f32453ac33e0ab1d2c6a8f3bc80]
reverse link followers to users--><path d="M402.242,264.907 C479.698,292.827 564.967,323.5636 615.559,341.8003 " fill="none" id="followers&lt;-users" style="stroke: #383838; stroke-width: 1.0;"/><line style="stroke: #383838; stroke-width: 1.0;" x1="401.817" x2="391.5781" y1="264.7539" y2="262.041"/><line style="stroke: #383838; stroke-width: 1.0;" x1="401.817" x2="397.0039" y1="264.7539" y2="262.041"/><line style="stroke: #383838; stroke-width: 1.0;" x1="401.817" x2="394.291" y1="264.7539" y2="262.041"/><!--MD5=[b44033c84abd3c051898f9d7738a6f2a]
reverse link followings to users--><path d="M599.932,252.517 C612.845,275.005 627.842,301.1236 639.683,321.745 " fill="none" id="followings&lt;-users" style="stroke: #383838; stroke-width: 1.0;"/><line style="stroke: #383838; stroke-width: 1.0;" x1="599.8033" x2="588.8822" y1="252.2918" y2="245.354"/><line style="stroke: #383838; stroke-width: 1.0;" x1="599.8033" x2="602.7578" y1="252.2918" y2="245.354"/><line style="stroke: #383838; stroke-width: 1.0;" x1="599.8033" x2="595.82" y1="252.2918" y2="245.354"/><!--MD5=[f0d4c0f9102afa637cc4f9edbe58e2fc]
reverse link likes to articles--><path d="M860.737,88.309 C837.057,112.299 807.738,142 785.147,164.887 " fill="none" id="likes&lt;-articles" style="stroke: #383838; stroke-width: 1.0;"/><line style="stroke: #383838; stroke-width: 1.0;" x1="861.0077" x2="860.9348" y1="88.0342" y2="82.341"/><line style="stroke: #383838; stroke-width: 1.0;" x1="861.0077" x2="872.3212" y1="88.0342" y2="82.341"/><line style="stroke: #383838; stroke-width: 1.0;" x1="861.0077" x2="866.628" y1="88.0342" y2="82.341"/><!--MD5=[7ab8a6299fe6b442d79d1fe586d3c28f]
reverse link likes to users--><path d="M896.699,90.509 C888.568,137.64 869.841,211.997 828.5,262 C795.964,301.3527 742.838,327.8179 705.043,342.826 " fill="none" id="likes&lt;-users" style="stroke: #383838; stroke-width: 1.0;"/><line style="stroke: #383838; stroke-width: 1.0;" x1="896.7453" x2="890.1583" y1="90.2177" y2="82.325"/><line style="stroke: #383838; stroke-width: 1.0;" x1="896.7453" x2="905.9437" y1="90.2177" y2="82.325"/><line style="stroke: #383838; stroke-width: 1.0;" x1="896.7453" x2="898.051" y1="90.2177" y2="82.325"/><!--MD5=[ab74b54eeecbe98acac434dc1c2be725]
reverse link revisions to articles--><path d="M740.229,90.458 C742.208,114.055 744.609,142.679 746.471,164.887 " fill="none" id="revisions&lt;-articles" style="stroke: #383838; stroke-width: 1.0;"/><line style="stroke: #383838; stroke-width: 1.0;" x1="740.2165" x2="731.576" y1="90.313" y2="82.341"/><line style="stroke: #383838; stroke-width: 1.0;" x1="740.2165" x2="747.52" y1="90.313" y2="82.341"/><line style="stroke: #383838; stroke-width: 1.0;" x1="740.2165" x2="739.548" y1="90.313" y2="82.341"/></g></svg>