<?xml version="1.0" encoding="UTF-8" standalone="no"?><svg xmlns="http://www.w3.org/2000/svg" xmlns:xlink="http://www.w3.org/1999/xlink" contentScriptType="application/ecmascript" contentStyleType="text/css" height="360px" preserveAspectRatio="none" style="width:480px;height:360px;" version="1.1" viewBox="0 0 480 360" width="480px" zoomAndPan="magnify"><defs><filter height="300%" id="f1q77syqbb2gab" width="300%" x="-1" y="-1"><feGaussianBlur result="blurOut" stdDeviation="2.0"/><feColorMatrix in="blurOut" result="blurOut2" type="matrix" values="0 0 0 0 0 0 0 0 0 0 0 0 0 0 0 0 0 0 .4 0"/><feOffset dx="4.0" dy="4.0" in="blurOut2" result="blurOut3"/><feBlend in="SourceGraphic" in2="blurOut3" mode="normal"/></filter></defs><g><!--MD5=[79d8edbcc1568d03c30ea71d2d6556d3]
class articles--><rect fill="#F8F8F8" filter="url(#f1q77syqbb2gab)" height="73.6094" id="articles" style="stroke: #383838; stroke-width: 1.5;" width="122" x="202.5" y="142"/><ellipse cx="237.3" cy="158" fill="#C2C2C2" rx="11" ry="11" style="stroke: #383838; stroke-width: 1.0;"/><path d="M236.0969,158.875 L237.55,158.875 L237.55,158.9844 C237.55,159.3906 237.5813,159.5469 237.6594,159.7031 C237.8156,159.9531 238.0969,160.1094 238.3938,160.1094 C238.6438,160.1094 238.9094,159.9688 239.0656,159.75 C239.1906,159.5938 239.2219,159.4375 239.2219,158.9844 L239.2219,157.0625 C239.2219,156.9063 239.2219,156.8594 239.2063,156.7031 C239.1438,156.2344 238.8313,155.9219 238.3781,155.9219 C238.1281,155.9219 237.8625,156.0625 237.6906,156.2813 C237.5813,156.4531 237.55,156.6094 237.55,157.0625 L237.55,157.1875 L236.0969,157.1875 L236.0969,154.7813 L240.0813,154.7813 L240.0813,155.6406 C240.0813,156.0469 240.1125,156.2188 240.1906,156.375 C240.3625,156.625 240.6438,156.7813 240.925,156.7813 C241.1906,156.7813 241.4563,156.6406 241.6281,156.4219 C241.7375,156.25 241.7688,156.1094 241.7688,155.6406 L241.7688,153.0938 L234.1438,153.0938 C233.7063,153.0938 233.5813,153.1094 233.425,153.2031 C233.175,153.3594 233.0188,153.6563 233.0188,153.9375 C233.0188,154.2188 233.1594,154.4688 233.3781,154.6406 C233.5344,154.75 233.7219,154.7813 234.1438,154.7813 L234.3938,154.7813 L234.3938,161.2969 L234.1438,161.2969 C233.7375,161.2969 233.5813,161.3125 233.425,161.4219 C233.175,161.5938 233.0188,161.8594 233.0188,162.1563 C233.0188,162.4219 233.1594,162.6719 233.3781,162.8281 C233.5188,162.9531 233.7531,163 234.1438,163 L242.1438,163 L242.1438,160.4219 C242.1438,159.9844 242.1125,159.8438 242.0344,159.6875 C241.8625,159.4375 241.5813,159.2813 241.3,159.2813 C241.0344,159.2813 240.7688,159.3906 240.5969,159.6406 C240.4875,159.7969 240.4563,159.9375 240.4563,160.4219 L240.4563,161.2969 L236.0969,161.2969 L236.0969,158.875 Z "/><text fill="#000000" font-family="sans-serif" font-size="12" lengthAdjust="spacingAndGlyphs" textLength="46" x="255.7" y="162.1543">articles</text><line style="stroke: #383838; stroke-width: 1.5;" x1="203.5" x2="323.5" y1="174" y2="174"/><ellipse cx="213.5" cy="185" fill="#000000" rx="3" ry="3" style="stroke: #000000; stroke-width: 1.0;"/><text fill="#000000" font-family="sans-serif" font-size="11" lengthAdjust="spacingAndGlyphs" textLength="63" x="222.5" y="188.2104">id : integer</text><line style="stroke: #383838; stroke-width: 1.0;" x1="203.5" x2="323.5" y1="194.8047" y2="194.8047"/><ellipse cx="213.5" cy="205.8047" fill="#000000" rx="3" ry="3" style="stroke: #000000; stroke-width: 1.0;"/><text fill="#000000" font-family="sans-serif" font-size="11" lengthAdjust="spacingAndGlyphs" textLength="96" x="222.5" y="209.0151">user_id : integer</text><!--MD5=[ffea0c25cc794db9280a5614eef8b091]
class comments--><rect fill="#F8F8F8" filter="url(#f1q77syqbb2gab)" height="73.6094" id="comments" style="stroke: #383838; stroke-width: 1.5;" width="131" x="6" y="8"/><ellipse cx="36.75" cy="24" fill="#C2C2C2" rx="11" ry="11" style="stroke: #383838; stroke-width: 1.0;"/><path d="M35.5469,24.875 L37,24.875 L37,24.9844 C37,25.3906 37.0313,25.5469 37.1094,25.7031 C37.2656,25.9531 37.5469,26.1094 37.8438,26.1094 C38.0938,26.1094 38.3594,25.9688 38.5156,25.75 C38.6406,25.5938 38.6719,25.4375 38.6719,24.9844 L38.6719,23.0625 C38.6719,22.9063 38.6719,22.8594 38.6563,22.7031 C38.5938,22.2344 38.2813,21.9219 37.8281,21.9219 C37.5781,21.9219 37.3125,22.0625 37.1406,22.2813 C37.0313,22.4531 37,22.6094 37,23.0625 L37,23.1875 L35.5469,23.1875 L35.5469,20.7813 L39.5313,20.7813 L39.5313,21.6406 C39.5313,22.0469 39.5625,22.2188 39.6406,22.375 C39.8125,22.625 40.0938,22.7813 40.375,22.7813 C40.6406,22.7813 40.9063,22.6406 41.0781,22.4219 C41.1875,22.25 41.2188,22.1094 41.2188,21.6406 L41.2188,19.0938 L33.5938,19.0938 C33.1563,19.0938 33.0313,19.1094 32.875,19.2031 C32.625,19.3594 32.4688,19.6563 32.4688,19.9375 C32.4688,20.2188 32.6094,20.4688 32.8281,20.6406 C32.9844,20.75 33.1719,20.7813 33.5938,20.7813 L33.8438,20.7813 L33.8438,27.2969 L33.5938,27.2969 C33.1875,27.2969 33.0313,27.3125 32.875,27.4219 C32.625,27.5938 32.4688,27.8594 32.4688,28.1563 C32.4688,28.4219 32.6094,28.6719 32.8281,28.8281 C32.9688,28.9531 33.2031,29 33.5938,29 L41.5938,29 L41.5938,26.4219 C41.5938,25.9844 41.5625,25.8438 41.4844,25.6875 C41.3125,25.4375 41.0313,25.2813 40.75,25.2813 C40.4844,25.2813 40.2188,25.3906 40.0469,25.6406 C39.9375,25.7969 39.9063,25.9375 39.9063,26.4219 L39.9063,27.2969 L35.5469,27.2969 L35.5469,24.875 Z "/><text fill="#000000" font-family="sans-serif" font-size="12" lengthAdjust="spacingAndGlyphs" textLength="64" x="54.25" y="28.1543">comments</text><line style="stroke: #383838; stroke-width: 1.5;" x1="7" x2="136" y1="40" y2="40"/><ellipse cx="17" cy="51" fill="#000000" rx="3" ry="3" style="stroke: #000000; stroke-width: 1.0;"/><text fill="#000000" font-family="sans-serif" font-size="11" lengthAdjust="spacingAndGlyphs" textLength="63" x="26" y="54.2104">id : integer</text><line style="stroke: #383838; stroke-width: 1.0;" x1="7" x2="136" y1="60.8047" y2="60.8047"/><ellipse cx="17" cy="71.8047" fill="#000000" rx="3" ry="3" style="stroke: #000000; stroke-width: 1.0;"/><text fill="#000000" font-family="sans-serif" font-size="11" lengthAdjust="spacingAndGlyphs" textLength="105" x="26" y="75.0151">article_id : integer</text><!--MD5=[b71691ed90354d79c1e3bc54a90e3196]
class likes--><rect fill="#F8F8F8" filter="url(#f1q77syqbb2gab)" height="73.6094" id="likes" style="stroke: #383838; stroke-width: 1.5;" width="131" x="338" y="8"/><ellipse cx="385.25" cy="24" fill="#C2C2C2" rx="11" ry="11" style="stroke: #383838; stroke-width: 1.0;"/><path d="M384.0469,24.875 L385.5,24.875 L385.5,24.9844 C385.5,25.3906 385.5313,25.5469 385.6094,25.7031 C385.7656,25.9531 386.0469,26.1094 386.3438,26.1094 C386.5938,26.1094 386.8594,25.9688 387.0156,25.75 C387.1406,25.5938 387.1719,25.4375 387.1719,24.9844 L387.1719,23.0625 C387.1719,22.9063 387.1719,22.8594 387.1563,22.7031 C387.0938,22.2344 386.7813,21.9219 386.3281,21.9219 C386.0781,21.9219 385.8125,22.0625 385.6406,22.2813 C385.5313,22.4531 385.5,22.6094 385.5,23.0625 L385.5,23.1875 L384.0469,23.1875 L384.0469,20.7813 L388.0313,20.7813 L388.0313,21.6406 C388.0313,22.0469 388.0625,22.2188 388.1406,22.375 C388.3125,22.625 388.5938,22.7813 388.875,22.7813 C389.1406,22.7813 389.4063,22.6406 389.5781,22.4219 C389.6875,22.25 389.7188,22.1094 389.7188,21.6406 L389.7188,19.0938 L382.0938,19.0938 C381.6563,19.0938 381.5313,19.1094 381.375,19.2031 C381.125,19.3594 380.9688,19.6563 380.9688,19.9375 C380.9688,20.2188 381.1094,20.4688 381.3281,20.6406 C381.4844,20.75 381.6719,20.7813 382.0938,20.7813 L382.3438,20.7813 L382.3438,27.2969 L382.0938,27.2969 C381.6875,27.2969 381.5313,27.3125 381.375,27.4219 C381.125,27.5938 380.9688,27.8594 380.9688,28.1563 C380.9688,28.4219 381.1094,28.6719 381.3281,28.8281 C381.4688,28.9531 381.7031,29 382.0938,29 L390.0938,29 L390.0938,26.4219 C390.0938,25.9844 390.0625,25.8438 389.9844,25.6875 C389.8125,25.4375 389.5313,25.2813 389.25,25.2813 C388.9844,25.2813 388.7188,25.3906 388.5469,25.6406 C388.4375,25.7969 388.4063,25.9375 388.4063,26.4219 L388.4063,27.2969 L384.0469,27.2969 L384.0469,24.875 Z "/><text fill="#000000" font-family="sans-serif" font-size="12" lengthAdjust="spacingAndGlyphs" textLength="28" x="405.75" y="28.1543">likes</text><line style="stroke: #383838; stroke-width: 1.5;" x1="339" x2="468" y1="40" y2="40"/><ellipse cx="349" cy="51" fill="#000000" rx="3" ry="3" style="stroke: #000000; stroke-width: 1.0;"/><text fill="#000000" font-family="sans-serif" font-size="11" lengthAdjust="spacingAndGlyphs" textLength="105" x="358" y="54.2104">article_id : integer</text><ellipse cx="349" cy="63.8047" fill="#000000" rx="3" ry="3" style="stroke: #000000; stroke-width: 1.0;"/><text fill="#000000" font-family="sans-serif" font-size="11" lengthAdjust="spacingAndGlyphs" textLength="96" x="358" y="67.0151">user_id : integer</text><line style="stroke: #383838; stroke-width: 1.5;" x1="339" x2="468" y1="73.6094" y2="73.6094"/><!--MD5=[b2d851ba367528962b4efddfd4662824]
class revisions--><rect fill="#F8F8F8" filter="url(#f1q77syqbb2gab)" height="73.6094" id="revisions" style="stroke: #383838; stroke-width: 1.5;" width="131" x="172" y="8"/><ellipse cx="206.8" cy="24" fill="#C2C2C2" rx="11" ry="11" style="stroke: #383838; stroke-width: 1.0;"/><path d="M205.5969,24.875 L207.05,24.875 L207.05,24.9844 C207.05,25.3906 207.0813,25.5469 207.1594,25.7031 C207.3156,25.9531 207.5969,26.1094 207.8938,26.1094 C208.1438,26.1094 208.4094,25.9688 208.5656,25.75 C208.6906,25.5938 208.7219,25.4375 208.7219,24.9844 L208.7219,23.0625 C208.7219,22.9063 208.7219,22.8594 208.7063,22.7031 C208.6438,22.2344 208.3313,21.9219 207.8781,21.9219 C207.6281,21.9219 207.3625,22.0625 207.1906,22.2813 C207.0813,22.4531 207.05,22.6094 207.05,23.0625 L207.05,23.1875 L205.5969,23.1875 L205.5969,20.7813 L209.5813,20.7813 L209.5813,21.6406 C209.5813,22.0469 209.6125,22.2188 209.6906,22.375 C209.8625,22.625 210.1438,22.7813 210.425,22.7813 C210.6906,22.7813 210.9563,22.6406 211.1281,22.4219 C211.2375,22.25 211.2688,22.1094 211.2688,21.6406 L211.2688,19.0938 L203.6438,19.0938 C203.2063,19.0938 203.0813,19.1094 202.925,19.2031 C202.675,19.3594 202.5188,19.6563 202.5188,19.9375 C202.5188,20.2188 202.6594,20.4688 202.8781,20.6406 C203.0344,20.75 203.2219,20.7813 203.6438,20.7813 L203.8938,20.7813 L203.8938,27.2969 L203.6438,27.2969 C203.2375,27.2969 203.0813,27.3125 202.925,27.4219 C202.675,27.5938 202.5188,27.8594 202.5188,28.1563 C202.5188,28.4219 202.6594,28.6719 202.8781,28.8281 C203.0188,28.9531 203.2531,29 203.6438,29 L211.6438,29 L211.6438,26.4219 C211.6438,25.9844 211.6125,25.8438 211.5344,25.6875 C211.3625,25.4375 211.0813,25.2813 210.8,25.2813 C210.5344,25.2813 210.2688,25.3906 210.0969,25.6406 C209.9875,25.7969 209.9563,25.9375 209.9563,26.4219 L209.9563,27.2969 L205.5969,27.2969 L205.5969,24.875 Z "/><text fill="#000000" font-family="sans-serif" font-size="12" lengthAdjust="spacingAndGlyphs" textLength="55" x="225.2" y="28.1543">revisions</text><line style="stroke: #383838; stroke-width: 1.5;" x1="173" x2="302" y1="40" y2="40"/><ellipse cx="183" cy="51" fill="#000000" rx="3" ry="3" style="stroke: #000000; stroke-width: 1.0;"/><text fill="#000000" font-family="sans-serif" font-size="11" lengthAdjust="spacingAndGlyphs" textLength="63" x="192" y="54.2104">id : integer</text><line style="stroke: #383838; stroke-width: 1.0;" x1="173" x2="302" y1="60.8047" y2="60.8047"/><ellipse cx="183" cy="71.8047" fill="#000000" rx="3" ry="3" style="stroke: #000000; stroke-width: 1.0;"/><text fill="#000000" font-family="sans-serif" font-size="11" lengthAdjust="spacingAndGlyphs" textLength="105" x="192" y="75.0151">article_id : integer</text><!--MD5=[8413f8248b2da7966d2de021109ec289]
class users--><rect fill="#F8F8F8" filter="url(#f1q77syqbb2gab)" height="73.6094" id="users" style="stroke: #383838; stroke-width: 1.5;" width="89" x="282" y="276"/><ellipse cx="307.35" cy="292" fill="#C2C2C2" rx="11" ry="11" style="stroke: #383838; stroke-width: 1.0;"/><path d="M306.1469,292.875 L307.6,292.875 L307.6,292.9844 C307.6,293.3906 307.6313,293.5469 307.7094,293.7031 C307.8656,293.9531 308.1469,294.1094 308.4438,294.1094 C308.6938,294.1094 308.9594,293.9688 309.1156,293.75 C309.2406,293.5938 309.2719,293.4375 309.2719,292.9844 L309.2719,291.0625 C309.2719,290.9063 309.2719,290.8594 309.2563,290.7031 C309.1938,290.2344 308.8813,289.9219 308.4281,289.9219 C308.1781,289.9219 307.9125,290.0625 307.7406,290.2813 C307.6313,290.4531 307.6,290.6094 307.6,291.0625 L307.6,291.1875 L306.1469,291.1875 L306.1469,288.7813 L310.1313,288.7813 L310.1313,289.6406 C310.1313,290.0469 310.1625,290.2188 310.2406,290.375 C310.4125,290.625 310.6938,290.7813 310.975,290.7813 C311.2406,290.7813 311.5063,290.6406 311.6781,290.4219 C311.7875,290.25 311.8188,290.1094 311.8188,289.6406 L311.8188,287.0938 L304.1938,287.0938 C303.7563,287.0938 303.6313,287.1094 303.475,287.2031 C303.225,287.3594 303.0688,287.6563 303.0688,287.9375 C303.0688,288.2188 303.2094,288.4688 303.4281,288.6406 C303.5844,288.75 303.7719,288.7813 304.1938,288.7813 L304.4438,288.7813 L304.4438,295.2969 L304.1938,295.2969 C303.7875,295.2969 303.6313,295.3125 303.475,295.4219 C303.225,295.5938 303.0688,295.8594 303.0688,296.1563 C303.0688,296.4219 303.2094,296.6719 303.4281,296.8281 C303.5688,296.9531 303.8031,297 304.1938,297 L312.1938,297 L312.1938,294.4219 C312.1938,293.9844 312.1625,293.8438 312.0844,293.6875 C311.9125,293.4375 311.6313,293.2813 311.35,293.2813 C311.0844,293.2813 310.8188,293.3906 310.6469,293.6406 C310.5375,293.7969 310.5063,293.9375 310.5063,294.4219 L310.5063,295.2969 L306.1469,295.2969 L306.1469,292.875 Z "/><text fill="#000000" font-family="sans-serif" font-size="12" lengthAdjust="spacingAndGlyphs" textLength="34" x="323.65" y="296.1543">users</text><line style="stroke: #383838; stroke-width: 1.5;" x1="283" x2="370" y1="308" y2="308"/><ellipse cx="293" cy="319" fill="#000000" rx="3" ry="3" style="stroke: #000000; stroke-width: 1.0;"/><text fill="#000000" font-family="sans-serif" font-size="11" lengthAdjust="spacingAndGlyphs" textLength="63" x="302" y="322.2104">id : integer</text><line style="stroke: #383838; stroke-width: 1.0;" x1="283" x2="370" y1="328.8047" y2="328.8047"/><text fill="#000000" font-family="sans-serif" font-size="11" lengthAdjust="spacingAndGlyphs" textLength="67" x="288" y="343.0151">name : text</text><!--MD5=[ecdc84a09e61f5b87dd8dadf07c1ea39]
reverse link articles to users--><path d="M284.35,223.685 C292.443,240.643 301.6,259.8278 309.306,275.974 " fill="none" id="articles&lt;-users" style="stroke: #383838; stroke-width: 1.0;"/><line style="stroke: #383838; stroke-width: 1.0;" x1="284.1607" x2="273.4951" y1="223.2899" y2="216.07"/><line style="stroke: #383838; stroke-width: 1.0;" x1="284.1607" x2="287.9349" y1="223.2899" y2="216.07"/><line style="stroke: #383838; stroke-width: 1.0;" x1="284.1607" x2="280.715" y1="223.2899" y2="216.07"/><!--MD5=[90b56babdbe2f4ab8c94b1a17f365ddd]
reverse link comments to articles--><path d="M130.744,86.73 C156.424,104.385 186.238,124.882 211.099,141.974 " fill="none" id="comments&lt;-articles" style="stroke: #383838; stroke-width: 1.0;"/><line style="stroke: #383838; stroke-width: 1.0;" x1="130.5574" x2="119.4329" y1="86.6021" y2="82.07"/><line style="stroke: #383838; stroke-width: 1.0;" x1="130.5574" x2="128.4971" y1="86.6021" y2="82.07"/><line style="stroke: #383838; stroke-width: 1.0;" x1="130.5574" x2="123.965" y1="86.6021" y2="82.07"/><!--MD5=[f0d4c0f9102afa637cc4f9edbe58e2fc]
reverse link likes to articles--><path d="M359.102,87.861 C340.653,105.256 319.451,125.246 301.709,141.974 " fill="none" id="likes&lt;-articles" style="stroke: #383838; stroke-width: 1.0;"/><line style="stroke: #383838; stroke-width: 1.0;" x1="359.4225" x2="359.7568" y1="87.5572" y2="82.07"/><line style="stroke: #383838; stroke-width: 1.0;" x1="359.4225" x2="370.7312" y1="87.5572" y2="82.07"/><line style="stroke: #383838; stroke-width: 1.0;" x1="359.4225" x2="365.244" y1="87.5572" y2="82.07"/><!--MD5=[7ab8a6299fe6b442d79d1fe586d3c28f]
reverse link likes to users--><path d="M390.796,89.886 C375.739,141.901 350.932,227.598 336.942,275.9282 " fill="none" id="likes&lt;-users" style="stroke: #383838; stroke-width: 1.0;"/><line style="stroke: #383838; stroke-width: 1.0;" x1="390.8106" x2="385.3505" y1="89.8355" y2="82.151"/><line style="stroke: #383838; stroke-width: 1.0;" x1="390.8106" x2="400.7195" y1="89.8355" y2="82.151"/><line style="stroke: #383838; stroke-width: 1.0;" x1="390.8106" x2="393.035" y1="89.8355" y2="82.151"/><!--MD5=[ab74b54eeecbe98acac434dc1c2be725]
reverse link revisions to articles--><path d="M246.195,90.144 C249.513,106.988 253.252,125.973 256.404,141.974 " fill="none" id="revisions&lt;-articles" style="stroke: #383838; stroke-width: 1.0;"/><line style="stroke: #383838; stroke-width: 1.0;" x1="246.1508" x2="236.7558" y1="89.9192" y2="82.07"/><line style="stroke: #383838; stroke-width: 1.0;" x1="246.1508" x2="252.4542" y1="89.9192" y2="82.07"/><line style="stroke: #383838; stroke-width: 1.0;" x1="246.1508" x2="244.605" y1="89.9192" y2="82.07"/></g></svg>