<?xml version="1.0" encoding="UTF-8" standalone="no"?><svg xmlns="http://www.w3.org/2000/svg" xmlns:xlink="http://www.w3.org/1999/xlink" contentScriptType="application/ecmascript" contentStyleType="text/css" height="226px" preserveAspectRatio="none" style="width:139px;height:226px;" version="1.1" viewBox="0 0 139 226" width="139px" zoomAndPan="magnify"><defs><filter height="300%" id="f19xkw2tu635hn" width="300%" x="-1" y="-1"><feGaussianBlur result="blurOut" stdDeviation="2.0"/><feColorMatrix in="blurOut" result="blurOut2" type="matrix" values="0 0 0 0 0 0 0 0 0 0 0 0 0 0 0 0 0 0 .4 0"/><feOffset dx="4.0" dy="4.0" in="blurOut2" result="blurOut3"/><feBlend in="SourceGraphic" in2="blurOut3" mode="normal"/></filter></defs><g><!--MD5=[79d8edbcc1568d03c30ea71d2d6556d3]
class articles--><rect fill="#F8F8F8" filter="url(#f19xkw2tu635hn)" height="73.6094" id="articles" style="stroke: #383838; stroke-width: 1.5;" width="122" x="6" y="8"/><ellipse cx="40.8" cy="24" fill="#C2C2C2" rx="11" ry="11" style="stroke: #383838; stroke-width: 1.0;"/><path d="M39.5969,24.875 L41.05,24.875 L41.05,24.9844 C41.05,25.3906 41.0813,25.5469 41.1594,25.7031 C41.3156,25.9531 41.5969,26.1094 41.8938,26.1094 C42.1438,26.1094 42.4094,25.9688 42.5656,25.75 C42.6906,25.5938 42.7219,25.4375 42.7219,24.9844 L42.7219,23.0625 C42.7219,22.9063 42.7219,22.8594 42.7063,22.7031 C42.6438,22.2344 42.3313,21.9219 41.8781,21.9219 C41.6281,21.9219 41.3625,22.0625 41.1906,22.2813 C41.0813,22.4531 41.05,22.6094 41.05,23.0625 L41.05,23.1875 L39.5969,23.1875 L39.5969,20.7813 L43.5813,20.7813 L43.5813,21.6406 C43.5813,22.0469 43.6125,22.2188 43.6906,22.375 C43.8625,22.625 44.1438,22.7813 44.425,22.7813 C44.6906,22.7813 44.9563,22.6406 45.1281,22.4219 C45.2375,22.25 45.2688,22.1094 45.2688,21.6406 L45.2688,19.0938 L37.6438,19.0938 C37.2063,19.0938 37.0813,19.1094 36.925,19.2031 C36.675,19.3594 36.5188,19.6563 36.5188,19.9375 C36.5188,20.2188 36.6594,20.4688 36.8781,20.6406 C37.0344,20.75 37.2219,20.7813 37.6438,20.7813 L37.8938,20.7813 L37.8938,27.2969 L37.6438,27.2969 C37.2375,27.2969 37.0813,27.3125 36.925,27.4219 C36.675,27.5938 36.5188,27.8594 36.5188,28.1563 C36.5188,28.4219 36.6594,28.6719 36.8781,28.8281 C37.0188,28.9531 37.2531,29 37.6438,29 L45.6438,29 L45.6438,26.4219 C45.6438,25.9844 45.6125,25.8438 45.5344,25.6875 C45.3625,25.4375 45.0813,25.2813 44.8,25.2813 C44.5344,25.2813 44.2688,25.3906 44.0969,25.6406 C43.9875,25.7969 43.9563,25.9375 43.9563,26.4219 L43.9563,27.2969 L39.5969,27.2969 L39.5969,24.875 Z "/><text fill="#000000" font-family="sans-serif" font-size="12" lengthAdjust="spacingAndGlyphs" textLength="46" x="59.2" y="28.1543">articles</text><line style="stroke: #383838; stroke-width: 1.5;" x1="7" x2="127" y1="40" y2="40"/><ellipse cx="17" cy="51" fill="#000000" rx="3" ry="3" style="stroke: #000000; stroke-width: 1.0;"/><text fill="#000000" font-family="sans-serif" font-size="11" lengthAdjust="spacingAndGlyphs" textLength="63" x="26" y="54.2104">id : integer</text><line style="stroke: #383838; stroke-width: 1.0;" x1="7" x2="127" y1="60.8047" y2="60.8047"/><ellipse cx="17" cy="71.8047" fill="#000000" rx="3" ry="3" style="stroke: #000000; stroke-width: 1.0;"/><text fill="#000000" font-family="sans-serif" font-size="11" lengthAdjust="spacingAndGlyphs" textLength="96" x="26" y="75.0151">user_id : integer</text><!--MD5=[8413f8248b2da7966d2de021109ec289]
class users--><rect fill="#F8F8F8" filter="url(#f19xkw2tu635hn)" height="73.6094" id="users" style="stroke: #383838; stroke-width: 1.5;" width="89" x="22.5" y="142"/><ellipse cx="47.85" cy="158" fill="#C2C2C2" rx="11" ry="11" style="stroke: #383838; stroke-width: 1.0;"/><path d="M46.6469,158.875 L48.1,158.875 L48.1,158.9844 C48.1,159.3906 48.1313,159.5469 48.2094,159.7031 C48.3656,159.9531 48.6469,160.1094 48.9438,160.1094 C49.1938,160.1094 49.4594,159.9688 49.6156,159.75 C49.7406,159.5938 49.7719,159.4375 49.7719,158.9844 L49.7719,157.0625 C49.7719,156.9063 49.7719,156.8594 49.7563,156.7031 C49.6938,156.2344 49.3813,155.9219 48.9281,155.9219 C48.6781,155.9219 48.4125,156.0625 48.2406,156.2813 C48.1313,156.4531 48.1,156.6094 48.1,157.0625 L48.1,157.1875 L46.6469,157.1875 L46.6469,154.7813 L50.6313,154.7813 L50.6313,155.6406 C50.6313,156.0469 50.6625,156.2188 50.7406,156.375 C50.9125,156.625 51.1938,156.7813 51.475,156.7813 C51.7406,156.7813 52.0063,156.6406 52.1781,156.4219 C52.2875,156.25 52.3188,156.1094 52.3188,155.6406 L52.3188,153.0938 L44.6938,153.0938 C44.2563,153.0938 44.1313,153.1094 43.975,153.2031 C43.725,153.3594 43.5688,153.6563 43.5688,153.9375 C43.5688,154.2188 43.7094,154.4688 43.9281,154.6406 C44.0844,154.75 44.2719,154.7813 44.6938,154.7813 L44.9438,154.7813 L44.9438,161.2969 L44.6938,161.2969 C44.2875,161.2969 44.1313,161.3125 43.975,161.4219 C43.725,161.5938 43.5688,161.8594 43.5688,162.1563 C43.5688,162.4219 43.7094,162.6719 43.9281,162.8281 C44.0688,162.9531 44.3031,163 44.6938,163 L52.6938,163 L52.6938,160.4219 C52.6938,159.9844 52.6625,159.8438 52.5844,159.6875 C52.4125,159.4375 52.1313,159.2813 51.85,159.2813 C51.5844,159.2813 51.3188,159.3906 51.1469,159.6406 C51.0375,159.7969 51.0063,159.9375 51.0063,160.4219 L51.0063,161.2969 L46.6469,161.2969 L46.6469,158.875 Z "/><text fill="#000000" font-family="sans-serif" font-size="12" lengthAdjust="spacingAndGlyphs" textLength="34" x="64.15" y="162.1543">users</text><line style="stroke: #383838; stroke-width: 1.5;" x1="23.5" x2="110.5" y1="174" y2="174"/><ellipse cx="33.5" cy="185" fill="#000000" rx="3" ry="3" style="stroke: #000000; stroke-width: 1.0;"/><text fill="#000000" font-family="sans-serif" font-size="11" lengthAdjust="spacingAndGlyphs" textLength="63" x="42.5" y="188.2104">id : integer</text><line style="stroke: #383838; stroke-width: 1.0;" x1="23.5" x2="110.5" y1="194.8047" y2="194.8047"/><text fill="#000000" font-family="sans-serif" font-size="11" lengthAdjust="spacingAndGlyphs" textLength="67" x="28.5" y="209.0151">name : text</text><!--MD5=[ecdc84a09e61f5b87dd8dadf07c1ea39]
reverse link articles to users--><path d="M67,90.144 C67,106.988 67,125.9733 67,141.974 " fill="none" id="articles&lt;-users" style="stroke: #383838; stroke-width: 1.0;"/><line style="stroke: #383838; stroke-width: 1.0;" x1="67" x2="59" y1="90.07" y2="82.07"/><line style="stroke: #383838; stroke-width: 1.0;" x1="67" x2="75" y1="90.07" y2="82.07"/><line style="stroke: #383838; stroke-width: 1.0;" x1="67" x2="67" y1="90.07" y2="82.07"/></g></svg>