<?xml version="1.0" encoding="UTF-8" standalone="no"?><svg xmlns="http://www.w3.org/2000/svg" xmlns:xlink="http://www.w3.org/1999/xlink" contentScriptType="application/ecmascript" contentStyleType="text/css" height="279.6857px" preserveAspectRatio="none" style="width:1019px;height:279px;" version="1.1" viewBox="0 0 1019 279" width="1019.4575px" zoomAndPan="magnify"><defs><filter height="300%" id="fu84nekmi5wda" width="300%" x="-1" y="-1"><feGaussianBlur result="blurOut" stdDeviation="1.2978453738910012"/><feColorMatrix in="blurOut" result="blurOut2" type="matrix" values="0 0 0 0 0 0 0 0 0 0 0 0 0 0 0 0 0 0 .4 0"/><feOffset dx="2.5956907477820024" dy="2.5956907477820024" in="blurOut2" result="blurOut3"/><feBlend in="SourceGraphic" in2="blurOut3" mode="normal"/></filter></defs><g><!--MD5=[79d8edbcc1568d03c30ea71d2d6556d3]
class articles--><rect fill="#F8F8F8" filter="url(#fu84nekmi5wda)" height="61.2674" id="articles" style="stroke: #383838; stroke-width: 0.9733840304182508;" width="140.8162" x="634.6464" y="116.8061"/><ellipse cx="687.3714" cy="127.1888" fill="#C2C2C2" rx="7.1381" ry="7.1381" style="stroke: #383838; stroke-width: 0.6489226869455006;"/><path d="M686.5906,127.7567 L687.5336,127.7567 L687.5336,127.8276 C687.5336,128.0913 687.5539,128.1926 687.6046,128.294 C687.706,128.4563 687.8885,128.5577 688.0811,128.5577 C688.2433,128.5577 688.4157,128.4664 688.5171,128.3245 C688.5982,128.2231 688.6185,128.1217 688.6185,127.8276 L688.6185,126.5805 C688.6185,126.4791 688.6185,126.4487 688.6084,126.3473 C688.5678,126.0431 688.365,125.8403 688.071,125.8403 C687.9087,125.8403 687.7364,125.9316 687.6248,126.0735 C687.5539,126.185 687.5336,126.2864 687.5336,126.5805 L687.5336,126.6616 L686.5906,126.6616 L686.5906,125.1001 L689.1762,125.1001 L689.1762,125.6578 C689.1762,125.9214 689.1965,126.033 689.2471,126.1343 C689.3587,126.2966 689.5412,126.398 689.7237,126.398 C689.8961,126.398 690.0684,126.3067 690.18,126.1648 C690.251,126.0532 690.2712,125.962 690.2712,125.6578 L690.2712,124.0051 L685.3232,124.0051 C685.0393,124.0051 684.9582,124.0152 684.8568,124.076 C684.6946,124.1774 684.5932,124.3701 684.5932,124.5526 C684.5932,124.7351 684.6844,124.8973 684.8264,125.0089 C684.9278,125.0798 685.0494,125.1001 685.3232,125.1001 L685.4854,125.1001 L685.4854,129.3283 L685.3232,129.3283 C685.0596,129.3283 684.9582,129.3384 684.8568,129.4094 C684.6946,129.5209 684.5932,129.6933 684.5932,129.8859 C684.5932,130.0583 684.6844,130.2205 684.8264,130.3219 C684.9176,130.403 685.0697,130.4335 685.3232,130.4335 L690.5146,130.4335 L690.5146,128.7605 C690.5146,128.4766 690.4943,128.3853 690.4436,128.2839 C690.3321,128.1217 690.1496,128.0203 689.967,128.0203 C689.7947,128.0203 689.6223,128.0913 689.5108,128.2535 C689.4398,128.3549 689.4195,128.4461 689.4195,128.7605 L689.4195,129.3283 L686.5906,129.3283 L686.5906,127.7567 Z "/><text fill="#000000" font-family="sans-serif" font-size="7.7871" lengthAdjust="spacingAndGlyphs" textLength="29.8504" x="700.6743" y="129.8847">articles</text><line style="stroke: #383838; stroke-width: 0.9733840304182508;" x1="635.2953" x2="774.8137" y1="137.5716" y2="137.5716"/><ellipse cx="641.7845" cy="144.7098" fill="#000000" rx="1.9468" ry="1.9468" style="stroke: #000000; stroke-width: 0.6489226869455006;"/><text fill="#000000" font-family="sans-serif" font-size="7.1381" lengthAdjust="spacingAndGlyphs" textLength="40.8821" x="647.6248" y="146.7931">id : integer</text><line style="stroke: #383838; stroke-width: 0.6489226869455006;" x1="635.2953" x2="774.8137" y1="151.0722" y2="151.0722"/><ellipse cx="641.7845" cy="158.2104" fill="#000000" rx="1.9468" ry="1.9468" style="stroke: #000000; stroke-width: 0.6489226869455006;"/><text fill="#000000" font-family="sans-serif" font-size="7.1381" lengthAdjust="spacingAndGlyphs" textLength="62.2966" x="647.6248" y="160.2937">user_id : integer</text><line style="stroke: #383838; stroke-width: 0.6489226869455006;" x1="635.2953" x2="774.8137" y1="164.5729" y2="164.5729"/><text fill="#000000" font-family="sans-serif" font-size="7.1381" lengthAdjust="spacingAndGlyphs" textLength="133.0292" x="638.5399" y="173.7944">index_user_id_on_articles (user_id)</text><!--MD5=[ffea0c25cc794db9280a5614eef8b091]
class comments--><rect fill="#F8F8F8" filter="url(#fu84nekmi5wda)" height="61.2674" id="comments" style="stroke: #383838; stroke-width: 0.9733840304182508;" width="152.4968" x="421.1508" y="6.8137"/><ellipse cx="473.8758" cy="17.1965" fill="#C2C2C2" rx="7.1381" ry="7.1381" style="stroke: #383838; stroke-width: 0.6489226869455006;"/><path d="M473.0951,17.7643 L474.038,17.7643 L474.038,17.8352 C474.038,18.0989 474.0583,18.2003 474.109,18.3016 C474.2104,18.4639 474.3929,18.5653 474.5856,18.5653 C474.7478,18.5653 474.9202,18.474 475.0215,18.3321 C475.1027,18.2307 475.1229,18.1293 475.1229,17.8352 L475.1229,16.5881 C475.1229,16.4867 475.1229,16.4563 475.1128,16.3549 C475.0722,16.0507 474.8695,15.8479 474.5754,15.8479 C474.4132,15.8479 474.2408,15.9392 474.1293,16.0811 C474.0583,16.1926 474.038,16.294 474.038,16.5881 L474.038,16.6692 L473.0951,16.6692 L473.0951,15.1077 L475.6806,15.1077 L475.6806,15.6654 C475.6806,15.929 475.7009,16.0406 475.7516,16.142 C475.8631,16.3042 476.0456,16.4056 476.2281,16.4056 C476.4005,16.4056 476.5729,16.3143 476.6844,16.1724 C476.7554,16.0608 476.7757,15.9696 476.7757,15.6654 L476.7757,14.0127 L471.8276,14.0127 C471.5437,14.0127 471.4626,14.0228 471.3612,14.0837 C471.199,14.185 471.0976,14.3777 471.0976,14.5602 C471.0976,14.7427 471.1888,14.9049 471.3308,15.0165 C471.4322,15.0875 471.5539,15.1077 471.8276,15.1077 L471.9899,15.1077 L471.9899,19.3359 L471.8276,19.3359 C471.564,19.3359 471.4626,19.346 471.3612,19.417 C471.199,19.5285 471.0976,19.7009 471.0976,19.8935 C471.0976,20.0659 471.1888,20.2281 471.3308,20.3295 C471.4221,20.4106 471.5741,20.4411 471.8276,20.4411 L477.019,20.4411 L477.019,18.7681 C477.019,18.4842 476.9987,18.3929 476.948,18.2915 C476.8365,18.1293 476.654,18.0279 476.4715,18.0279 C476.2991,18.0279 476.1267,18.0989 476.0152,18.2611 C475.9442,18.3625 475.924,18.4537 475.924,18.7681 L475.924,19.3359 L473.0951,19.3359 L473.0951,17.7643 Z "/><text fill="#000000" font-family="sans-serif" font-size="7.7871" lengthAdjust="spacingAndGlyphs" textLength="41.5311" x="487.1787" y="19.8923">comments</text><line style="stroke: #383838; stroke-width: 0.9733840304182508;" x1="421.7997" x2="572.9987" y1="27.5792" y2="27.5792"/><ellipse cx="428.289" cy="34.7174" fill="#000000" rx="1.9468" ry="1.9468" style="stroke: #000000; stroke-width: 0.6489226869455006;"/><text fill="#000000" font-family="sans-serif" font-size="7.1381" lengthAdjust="spacingAndGlyphs" textLength="40.8821" x="434.1293" y="36.8007">id : integer</text><line style="stroke: #383838; stroke-width: 0.6489226869455006;" x1="421.7997" x2="572.9987" y1="41.0798" y2="41.0798"/><ellipse cx="428.289" cy="48.218" fill="#000000" rx="1.9468" ry="1.9468" style="stroke: #000000; stroke-width: 0.6489226869455006;"/><text fill="#000000" font-family="sans-serif" font-size="7.1381" lengthAdjust="spacingAndGlyphs" textLength="68.1369" x="434.1293" y="50.3013">article_id : integer</text><line style="stroke: #383838; stroke-width: 0.6489226869455006;" x1="421.7997" x2="572.9987" y1="54.5805" y2="54.5805"/><text fill="#000000" font-family="sans-serif" font-size="7.1381" lengthAdjust="spacingAndGlyphs" textLength="144.7098" x="425.0444" y="63.802">index_article_id_on_articles (article_id)</text><!--MD5=[00e75c9f542dcd9a46e7d41c30801c06]
class followers--><rect fill="#F8F8F8" filter="url(#fu84nekmi5wda)" height="77.8859" id="followers" style="stroke: #383838; stroke-width: 0.9733840304182508;" width="291.3663" x="3.8935" y="108.3701"/><ellipse cx="128.6489" cy="118.7529" fill="#C2C2C2" rx="7.1381" ry="7.1381" style="stroke: #383838; stroke-width: 0.6489226869455006;"/><path d="M127.8682,119.3207 L128.8112,119.3207 L128.8112,119.3916 C128.8112,119.6553 128.8314,119.7567 128.8821,119.858 C128.9835,120.0203 129.166,120.1217 129.3587,120.1217 C129.5209,120.1217 129.6933,120.0304 129.7947,119.8885 C129.8758,119.7871 129.8961,119.6857 129.8961,119.3916 L129.8961,118.1445 C129.8961,118.0431 129.8961,118.0127 129.8859,117.9113 C129.8454,117.6071 129.6426,117.4043 129.3485,117.4043 C129.1863,117.4043 129.0139,117.4956 128.9024,117.6375 C128.8314,117.749 128.8112,117.8504 128.8112,118.1445 L128.8112,118.2256 L127.8682,118.2256 L127.8682,116.6641 L130.4537,116.6641 L130.4537,117.2218 C130.4537,117.4854 130.474,117.597 130.5247,117.6984 C130.6362,117.8606 130.8188,117.962 131.0013,117.962 C131.1736,117.962 131.346,117.8707 131.4575,117.7288 C131.5285,117.6172 131.5488,117.526 131.5488,117.2218 L131.5488,115.5691 L126.6008,115.5691 C126.3169,115.5691 126.2357,115.5792 126.1343,115.6401 C125.9721,115.7414 125.8707,115.9341 125.8707,116.1166 C125.8707,116.2991 125.962,116.4613 126.1039,116.5729 C126.2053,116.6439 126.327,116.6641 126.6008,116.6641 L126.763,116.6641 L126.763,120.8923 L126.6008,120.8923 C126.3371,120.8923 126.2357,120.9024 126.1343,120.9734 C125.9721,121.0849 125.8707,121.2573 125.8707,121.4499 C125.8707,121.6223 125.962,121.7845 126.1039,121.8859 C126.1952,121.967 126.3473,121.9975 126.6008,121.9975 L131.7921,121.9975 L131.7921,120.3245 C131.7921,120.0406 131.7719,119.9493 131.7212,119.8479 C131.6096,119.6857 131.4271,119.5843 131.2446,119.5843 C131.0722,119.5843 130.8999,119.6553 130.7883,119.8175 C130.7174,119.9189 130.6971,120.0101 130.6971,120.3245 L130.6971,120.8923 L127.8682,120.8923 L127.8682,119.3207 Z "/><text fill="#000000" font-family="sans-serif" font-size="7.7871" lengthAdjust="spacingAndGlyphs" textLength="36.3397" x="141.9518" y="121.4487">followers</text><line style="stroke: #383838; stroke-width: 0.9733840304182508;" x1="4.5425" x2="294.6109" y1="129.1356" y2="129.1356"/><ellipse cx="11.0317" cy="136.2738" fill="#000000" rx="1.9468" ry="1.9468" style="stroke: #000000; stroke-width: 0.6489226869455006;"/><text fill="#000000" font-family="sans-serif" font-size="7.1381" lengthAdjust="spacingAndGlyphs" textLength="40.8821" x="16.872" y="138.3571">id : integer</text><line style="stroke: #383838; stroke-width: 0.6489226869455006;" x1="4.5425" x2="294.6109" y1="142.6362" y2="142.6362"/><ellipse cx="11.0317" cy="149.7744" fill="#000000" rx="1.9468" ry="1.9468" style="stroke: #000000; stroke-width: 0.6489226869455006;"/><text fill="#000000" font-family="sans-serif" font-size="7.1381" lengthAdjust="spacingAndGlyphs" textLength="62.2966" x="16.872" y="151.8577">user_id : integer</text><ellipse cx="11.0317" cy="158.0837" fill="#000000" rx="1.9468" ry="1.9468" style="stroke: #000000; stroke-width: 0.6489226869455006;"/><text fill="#000000" font-family="sans-serif" font-size="7.1381" lengthAdjust="spacingAndGlyphs" textLength="88.9024" x="16.872" y="160.167">target_user_id : integer</text><line style="stroke: #383838; stroke-width: 0.6489226869455006;" x1="4.5425" x2="294.6109" y1="164.4461" y2="164.4461"/><rect fill="#808080" height="3.8935" style="stroke: #595959; stroke-width: 0.6489226869455006;" width="3.8935" x="9.0849" y="169.6375"/><text fill="#000000" font-family="sans-serif" font-size="7.1381" lengthAdjust="spacingAndGlyphs" textLength="274.4943" x="16.872" y="173.6676">index_target_user_id_and_user_id_on_followers (target_user_id, user_id)</text><rect fill="#808080" height="3.8935" style="stroke: #595959; stroke-width: 0.6489226869455006;" width="3.8935" x="9.0849" y="177.9468"/><text fill="#000000" font-family="sans-serif" font-size="7.1381" lengthAdjust="spacingAndGlyphs" textLength="274.4943" x="16.872" y="181.9769">index_user_id_and_target_user_id_on_followers (user_id, target_user_id)</text><!--MD5=[f465fa18fc6d53434f768b837a604e6d]
class followings--><rect fill="#F8F8F8" filter="url(#fu84nekmi5wda)" height="77.8859" id="followings" style="stroke: #383838; stroke-width: 0.9733840304182508;" width="293.962" x="317.9721" y="108.3701"/><ellipse cx="442.403" cy="118.7529" fill="#C2C2C2" rx="7.1381" ry="7.1381" style="stroke: #383838; stroke-width: 0.6489226869455006;"/><path d="M441.6223,119.3207 L442.5653,119.3207 L442.5653,119.3916 C442.5653,119.6553 442.5856,119.7567 442.6362,119.858 C442.7376,120.0203 442.9202,120.1217 443.1128,120.1217 C443.275,120.1217 443.4474,120.0304 443.5488,119.8885 C443.6299,119.7871 443.6502,119.6857 443.6502,119.3916 L443.6502,118.1445 C443.6502,118.0431 443.6502,118.0127 443.6401,117.9113 C443.5995,117.6071 443.3967,117.4043 443.1027,117.4043 C442.9404,117.4043 442.7681,117.4956 442.6565,117.6375 C442.5856,117.749 442.5653,117.8504 442.5653,118.1445 L442.5653,118.2256 L441.6223,118.2256 L441.6223,116.6641 L444.2079,116.6641 L444.2079,117.2218 C444.2079,117.4854 444.2281,117.597 444.2788,117.6984 C444.3904,117.8606 444.5729,117.962 444.7554,117.962 C444.9278,117.962 445.1001,117.8707 445.2117,117.7288 C445.2826,117.6172 445.3029,117.526 445.3029,117.2218 L445.3029,115.5691 L440.3549,115.5691 C440.071,115.5691 439.9899,115.5792 439.8885,115.6401 C439.7262,115.7414 439.6248,115.9341 439.6248,116.1166 C439.6248,116.2991 439.7161,116.4613 439.858,116.5729 C439.9594,116.6439 440.0811,116.6641 440.3549,116.6641 L440.5171,116.6641 L440.5171,120.8923 L440.3549,120.8923 C440.0913,120.8923 439.9899,120.9024 439.8885,120.9734 C439.7262,121.0849 439.6248,121.2573 439.6248,121.4499 C439.6248,121.6223 439.7161,121.7845 439.858,121.8859 C439.9493,121.967 440.1014,121.9975 440.3549,121.9975 L445.5463,121.9975 L445.5463,120.3245 C445.5463,120.0406 445.526,119.9493 445.4753,119.8479 C445.3638,119.6857 445.1812,119.5843 444.9987,119.5843 C444.8264,119.5843 444.654,119.6553 444.5425,119.8175 C444.4715,119.9189 444.4512,120.0101 444.4512,120.3245 L444.4512,120.8923 L441.6223,120.8923 L441.6223,119.3207 Z "/><text fill="#000000" font-family="sans-serif" font-size="7.7871" lengthAdjust="spacingAndGlyphs" textLength="39.5843" x="455.706" y="121.4487">followings</text><line style="stroke: #383838; stroke-width: 0.9733840304182508;" x1="318.621" x2="611.2852" y1="129.1356" y2="129.1356"/><ellipse cx="325.1103" cy="136.2738" fill="#000000" rx="1.9468" ry="1.9468" style="stroke: #000000; stroke-width: 0.6489226869455006;"/><text fill="#000000" font-family="sans-serif" font-size="7.1381" lengthAdjust="spacingAndGlyphs" textLength="40.8821" x="330.9506" y="138.3571">id : integer</text><line style="stroke: #383838; stroke-width: 0.6489226869455006;" x1="318.621" x2="611.2852" y1="142.6362" y2="142.6362"/><ellipse cx="325.1103" cy="149.7744" fill="#000000" rx="1.9468" ry="1.9468" style="stroke: #000000; stroke-width: 0.6489226869455006;"/><text fill="#000000" font-family="sans-serif" font-size="7.1381" lengthAdjust="spacingAndGlyphs" textLength="62.2966" x="330.9506" y="151.8577">user_id : integer</text><ellipse cx="325.1103" cy="158.0837" fill="#000000" rx="1.9468" ry="1.9468" style="stroke: #000000; stroke-width: 0.6489226869455006;"/><text fill="#000000" font-family="sans-serif" font-size="7.1381" lengthAdjust="spacingAndGlyphs" textLength="88.9024" x="330.9506" y="160.167">target_user_id : integer</text><line style="stroke: #383838; stroke-width: 0.6489226869455006;" x1="318.621" x2="611.2852" y1="164.4461" y2="164.4461"/><rect fill="#808080" height="3.8935" style="stroke: #595959; stroke-width: 0.6489226869455006;" width="3.8935" x="323.1635" y="169.6375"/><text fill="#000000" font-family="sans-serif" font-size="7.1381" lengthAdjust="spacingAndGlyphs" textLength="277.09" x="330.9506" y="173.6676">index_target_user_id_and_user_id_on_followings (target_user_id, user_id)</text><rect fill="#808080" height="3.8935" style="stroke: #595959; stroke-width: 0.6489226869455006;" width="3.8935" x="323.1635" y="177.9468"/><text fill="#000000" font-family="sans-serif" font-size="7.1381" lengthAdjust="spacingAndGlyphs" textLength="277.09" x="330.9506" y="181.9769">index_user_id_and_target_user_id_on_followings (user_id, target_user_id)</text><!--MD5=[b71691ed90354d79c1e3bc54a90e3196]
class likes--><rect fill="#F8F8F8" filter="url(#fu84nekmi5wda)" height="64.3853" id="likes" style="stroke: #383838; stroke-width: 0.9733840304182508;" width="232.9632" x="779.3561" y="5.1914"/><ellipse cx="883.9949" cy="15.5741" fill="#C2C2C2" rx="7.1381" ry="7.1381" style="stroke: #383838; stroke-width: 0.6489226869455006;"/><path d="M883.2142,16.142 L884.1572,16.142 L884.1572,16.2129 C884.1572,16.4766 884.1774,16.5779 884.2281,16.6793 C884.3295,16.8416 884.512,16.943 884.7047,16.943 C884.8669,16.943 885.0393,16.8517 885.1407,16.7098 C885.2218,16.6084 885.2421,16.507 885.2421,16.2129 L885.2421,14.9658 C885.2421,14.8644 885.2421,14.834 885.2319,14.7326 C885.1914,14.4284 884.9886,14.2256 884.6946,14.2256 C884.5323,14.2256 884.3599,14.3169 884.2484,14.4588 C884.1774,14.5703 884.1572,14.6717 884.1572,14.9658 L884.1572,15.0469 L883.2142,15.0469 L883.2142,13.4854 L885.7997,13.4854 L885.7997,14.0431 C885.7997,14.3067 885.82,14.4183 885.8707,14.5196 C885.9823,14.6819 886.1648,14.7833 886.3473,14.7833 C886.5196,14.7833 886.692,14.692 886.8035,14.5501 C886.8745,14.4385 886.8948,14.3473 886.8948,14.0431 L886.8948,12.3904 L881.9468,12.3904 C881.6629,12.3904 881.5817,12.4005 881.4804,12.4613 C881.3181,12.5627 881.2167,12.7554 881.2167,12.9379 C881.2167,13.1204 881.308,13.2826 881.4499,13.3942 C881.5513,13.4651 881.673,13.4854 881.9468,13.4854 L882.109,13.4854 L882.109,17.7136 L881.9468,17.7136 C881.6831,17.7136 881.5817,17.7237 881.4804,17.7947 C881.3181,17.9062 881.2167,18.0786 881.2167,18.2712 C881.2167,18.4436 881.308,18.6058 881.4499,18.7072 C881.5412,18.7883 881.6933,18.8188 881.9468,18.8188 L887.1381,18.8188 L887.1381,17.1458 C887.1381,16.8619 887.1179,16.7706 887.0672,16.6692 C886.9556,16.507 886.7731,16.4056 886.5906,16.4056 C886.4183,16.4056 886.2459,16.4766 886.1343,16.6388 C886.0634,16.7402 886.0431,16.8314 886.0431,17.1458 L886.0431,17.7136 L883.2142,17.7136 L883.2142,16.142 Z "/><text fill="#000000" font-family="sans-serif" font-size="7.7871" lengthAdjust="spacingAndGlyphs" textLength="18.1698" x="897.2978" y="18.27">likes</text><line style="stroke: #383838; stroke-width: 0.9733840304182508;" x1="780.0051" x2="1011.6705" y1="25.9569" y2="25.9569"/><ellipse cx="786.4943" cy="33.0951" fill="#000000" rx="1.9468" ry="1.9468" style="stroke: #000000; stroke-width: 0.6489226869455006;"/><text fill="#000000" font-family="sans-serif" font-size="7.1381" lengthAdjust="spacingAndGlyphs" textLength="68.1369" x="792.3346" y="35.1784">article_id : integer</text><ellipse cx="786.4943" cy="41.4043" fill="#000000" rx="1.9468" ry="1.9468" style="stroke: #000000; stroke-width: 0.6489226869455006;"/><text fill="#000000" font-family="sans-serif" font-size="7.1381" lengthAdjust="spacingAndGlyphs" textLength="62.2966" x="792.3346" y="43.4876">user_id : integer</text><line style="stroke: #383838; stroke-width: 0.6489226869455006;" x1="780.0051" x2="1011.6705" y1="47.7668" y2="47.7668"/><text fill="#000000" font-family="sans-serif" font-size="7.1381" lengthAdjust="spacingAndGlyphs" textLength="122.6464" x="792.3346" y="56.9883">index_user_id_on_likes (user_id)</text><rect fill="#808080" height="3.8935" style="stroke: #595959; stroke-width: 0.6489226869455006;" width="3.8935" x="784.5475" y="61.2674"/><text fill="#000000" font-family="sans-serif" font-size="7.1381" lengthAdjust="spacingAndGlyphs" textLength="216.0913" x="792.3346" y="65.2975">index_article_id_and_user_id_on_likes (article_id, user_id)</text><!--MD5=[b2d851ba367528962b4efddfd4662824]
class revisions--><rect fill="#F8F8F8" filter="url(#fu84nekmi5wda)" height="61.2674" id="revisions" style="stroke: #383838; stroke-width: 0.9733840304182508;" width="159.635" x="596.6844" y="6.8137"/><ellipse cx="655.8986" cy="17.1965" fill="#C2C2C2" rx="7.1381" ry="7.1381" style="stroke: #383838; stroke-width: 0.6489226869455006;"/><path d="M655.1179,17.7643 L656.0608,17.7643 L656.0608,17.8352 C656.0608,18.0989 656.0811,18.2003 656.1318,18.3016 C656.2332,18.4639 656.4157,18.5653 656.6084,18.5653 C656.7706,18.5653 656.943,18.474 657.0444,18.3321 C657.1255,18.2307 657.1458,18.1293 657.1458,17.8352 L657.1458,16.5881 C657.1458,16.4867 657.1458,16.4563 657.1356,16.3549 C657.0951,16.0507 656.8923,15.8479 656.5982,15.8479 C656.436,15.8479 656.2636,15.9392 656.1521,16.0811 C656.0811,16.1926 656.0608,16.294 656.0608,16.5881 L656.0608,16.6692 L655.1179,16.6692 L655.1179,15.1077 L657.7034,15.1077 L657.7034,15.6654 C657.7034,15.929 657.7237,16.0406 657.7744,16.142 C657.8859,16.3042 658.0684,16.4056 658.251,16.4056 C658.4233,16.4056 658.5957,16.3143 658.7072,16.1724 C658.7782,16.0608 658.7985,15.9696 658.7985,15.6654 L658.7985,14.0127 L653.8504,14.0127 C653.5665,14.0127 653.4854,14.0228 653.384,14.0837 C653.2218,14.185 653.1204,14.3777 653.1204,14.5602 C653.1204,14.7427 653.2117,14.9049 653.3536,15.0165 C653.455,15.0875 653.5767,15.1077 653.8504,15.1077 L654.0127,15.1077 L654.0127,19.3359 L653.8504,19.3359 C653.5868,19.3359 653.4854,19.346 653.384,19.417 C653.2218,19.5285 653.1204,19.7009 653.1204,19.8935 C653.1204,20.0659 653.2117,20.2281 653.3536,20.3295 C653.4449,20.4106 653.597,20.4411 653.8504,20.4411 L659.0418,20.4411 L659.0418,18.7681 C659.0418,18.4842 659.0215,18.3929 658.9708,18.2915 C658.8593,18.1293 658.6768,18.0279 658.4943,18.0279 C658.3219,18.0279 658.1496,18.0989 658.038,18.2611 C657.967,18.3625 657.9468,18.4537 657.9468,18.7681 L657.9468,19.3359 L655.1179,19.3359 L655.1179,17.7643 Z "/><text fill="#000000" font-family="sans-serif" font-size="7.7871" lengthAdjust="spacingAndGlyphs" textLength="35.6907" x="669.2015" y="19.8923">revisions</text><line style="stroke: #383838; stroke-width: 0.9733840304182508;" x1="597.3333" x2="755.6705" y1="27.5792" y2="27.5792"/><ellipse cx="603.8226" cy="34.7174" fill="#000000" rx="1.9468" ry="1.9468" style="stroke: #000000; stroke-width: 0.6489226869455006;"/><text fill="#000000" font-family="sans-serif" font-size="7.1381" lengthAdjust="spacingAndGlyphs" textLength="40.8821" x="609.6629" y="36.8007">id : integer</text><line style="stroke: #383838; stroke-width: 0.6489226869455006;" x1="597.3333" x2="755.6705" y1="41.0798" y2="41.0798"/><ellipse cx="603.8226" cy="48.218" fill="#000000" rx="1.9468" ry="1.9468" style="stroke: #000000; stroke-width: 0.6489226869455006;"/><text fill="#000000" font-family="sans-serif" font-size="7.1381" lengthAdjust="spacingAndGlyphs" textLength="68.1369" x="609.6629" y="50.3013">article_id : integer</text><line style="stroke: #383838; stroke-width: 0.6489226869455006;" x1="597.3333" x2="755.6705" y1="54.5805" y2="54.5805"/><text fill="#000000" font-family="sans-serif" font-size="7.1381" lengthAdjust="spacingAndGlyphs" textLength="151.8479" x="600.5779" y="63.802">index_article_id_on_revisions (article_id)</text><!--MD5=[8413f8248b2da7966d2de021109ec289]
class users--><rect fill="#F8F8F8" filter="url(#fu84nekmi5wda)" height="47.7668" id="users" style="stroke: #383838; stroke-width: 0.9733840304182508;" width="57.7541" x="436.076" y="225.1762"/><ellipse cx="452.5262" cy="235.5589" fill="#C2C2C2" rx="7.1381" ry="7.1381" style="stroke: #383838; stroke-width: 0.6489226869455006;"/><path d="M451.7455,236.1267 L452.6885,236.1267 L452.6885,236.1977 C452.6885,236.4613 452.7087,236.5627 452.7594,236.6641 C452.8608,236.8264 453.0433,236.9278 453.236,236.9278 C453.3982,236.9278 453.5706,236.8365 453.672,236.6946 C453.7531,236.5932 453.7734,236.4918 453.7734,236.1977 L453.7734,234.9506 C453.7734,234.8492 453.7734,234.8188 453.7632,234.7174 C453.7227,234.4132 453.5199,234.2104 453.2259,234.2104 C453.0636,234.2104 452.8913,234.3016 452.7797,234.4436 C452.7087,234.5551 452.6885,234.6565 452.6885,234.9506 L452.6885,235.0317 L451.7455,235.0317 L451.7455,233.4702 L454.3311,233.4702 L454.3311,234.0279 C454.3311,234.2915 454.3513,234.403 454.402,234.5044 C454.5136,234.6667 454.6961,234.7681 454.8786,234.7681 C455.051,234.7681 455.2233,234.6768 455.3349,234.5349 C455.4058,234.4233 455.4261,234.3321 455.4261,234.0279 L455.4261,232.3752 L450.4781,232.3752 C450.1942,232.3752 450.1131,232.3853 450.0117,232.4461 C449.8494,232.5475 449.748,232.7402 449.748,232.9227 C449.748,233.1052 449.8393,233.2674 449.9812,233.379 C450.0826,233.4499 450.2043,233.4702 450.4781,233.4702 L450.6403,233.4702 L450.6403,237.6984 L450.4781,237.6984 C450.2144,237.6984 450.1131,237.7085 450.0117,237.7795 C449.8494,237.891 449.748,238.0634 449.748,238.256 C449.748,238.4284 449.8393,238.5906 449.9812,238.692 C450.0725,238.7731 450.2246,238.8035 450.4781,238.8035 L455.6695,238.8035 L455.6695,237.1305 C455.6695,236.8466 455.6492,236.7554 455.5985,236.654 C455.4869,236.4918 455.3044,236.3904 455.1219,236.3904 C454.9496,236.3904 454.7772,236.4613 454.6657,236.6236 C454.5947,236.725 454.5744,236.8162 454.5744,237.1305 L454.5744,237.6984 L451.7455,237.6984 L451.7455,236.1267 Z "/><text fill="#000000" font-family="sans-serif" font-size="7.7871" lengthAdjust="spacingAndGlyphs" textLength="22.0634" x="463.1037" y="238.2548">users</text><line style="stroke: #383838; stroke-width: 0.9733840304182508;" x1="436.725" x2="493.1812" y1="245.9417" y2="245.9417"/><ellipse cx="443.2142" cy="253.0798" fill="#000000" rx="1.9468" ry="1.9468" style="stroke: #000000; stroke-width: 0.6489226869455006;"/><text fill="#000000" font-family="sans-serif" font-size="7.1381" lengthAdjust="spacingAndGlyphs" textLength="40.8821" x="449.0545" y="255.1632">id : integer</text><line style="stroke: #383838; stroke-width: 0.6489226869455006;" x1="436.725" x2="493.1812" y1="259.4423" y2="259.4423"/><text fill="#000000" font-family="sans-serif" font-size="7.1381" lengthAdjust="spacingAndGlyphs" textLength="43.4778" x="439.9696" y="268.6638">name : text</text><!--MD5=[ecdc84a09e61f5b87dd8dadf07c1ea39]
reverse link articles to users--><path d="M637.4971,179.9917 C632.7048,182.1403 627.9333,184.2428 623.2902,186.2408 C578.6541,205.4496 526.0038,225.6947 494.0696,237.7129 " fill="none" id="articles&lt;-users" style="stroke: #383838; stroke-width: 0.6489226869455006;"/><line style="stroke: #383838; stroke-width: 0.6489226869455006;" x1="637.5607" x2="640.1596" y1="179.9638" y2="177.8301"/><line style="stroke: #383838; stroke-width: 0.6489226869455006;" x1="637.5607" x2="644.427" y1="179.9638" y2="177.8301"/><line style="stroke: #383838; stroke-width: 0.6489226869455006;" x1="637.5607" x2="642.2933" y1="179.9638" y2="177.8301"/><!--MD5=[90b56babdbe2f4ab8c94b1a17f365ddd]
reverse link comments to articles--><path d="M559.337,70.3828 C587.4366,85.0906 620.4544,102.3734 647.9493,116.7652 " fill="none" id="comments&lt;-articles" style="stroke: #383838; stroke-width: 0.6489226869455006;"/><line style="stroke: #383838; stroke-width: 0.6489226869455006;" x1="559.2906" x2="552.2837" y1="70.3589" y2="67.9513"/><line style="stroke: #383838; stroke-width: 0.6489226869455006;" x1="559.2906" x2="557.099" y1="70.3589" y2="67.9513"/><line style="stroke: #383838; stroke-width: 0.6489226869455006;" x1="559.2906" x2="554.6913" y1="70.3589" y2="67.9513"/><!--MD5=[cf013f32453ac33e0ab1d2c6a8f3bc80]
reverse link followers to users--><path d="M266.593,187.8625 C327.7423,207.5592 397.617,229.4783 436.0553,240.8099 " fill="none" id="followers&lt;-users" style="stroke: #383838; stroke-width: 0.6489226869455006;"/><line style="stroke: #383838; stroke-width: 0.6489226869455006;" x1="266.586" x2="260.0523" y1="187.86" y2="186.2674"/><line style="stroke: #383838; stroke-width: 0.6489226869455006;" x1="266.586" x2="263.2376" y1="187.86" y2="186.2674"/><line style="stroke: #383838; stroke-width: 0.6489226869455006;" x1="266.586" x2="261.645" y1="187.86" y2="186.2674"/><!--MD5=[cf013f32453ac33e0ab1d2c6a8f3bc80]
reverse link followers to users--><path d="M283.1944,187.8294 C339.9648,205.7468 400.9778,225.5091 435.991,237.4712 " fill="none" id="followers&lt;-users-1" style="stroke: #383838; stroke-width: 0.6489226869455006;"/><line style="stroke: #383838; stroke-width: 0.6489226869455006;" x1="283.1933" x2="276.6806" y1="187.8293" y2="186.2674"/><line style="stroke: #383838; stroke-width: 0.6489226869455006;" x1="283.1933" x2="279.8044" y1="187.8293" y2="186.2674"/><line style="stroke: #383838; stroke-width: 0.6489226869455006;" x1="283.1933" x2="278.2425" y1="187.8293" y2="186.2674"/><!--MD5=[b44033c84abd3c051898f9d7738a6f2a]
reverse link followings to users--><path d="M456.7462,191.4945 C456.5184,202.9635 456.874,214.9099 457.8124,224.8886 " fill="none" id="followings&lt;-users" style="stroke: #383838; stroke-width: 0.6489226869455006;"/><line style="stroke: #383838; stroke-width: 0.6489226869455006;" x1="456.7469" x2="451.7022" y1="191.4568" y2="186.2674"/><line style="stroke: #383838; stroke-width: 0.6489226869455006;" x1="456.7469" x2="462.0809" y1="191.4568" y2="186.2674"/><line style="stroke: #383838; stroke-width: 0.6489226869455006;" x1="456.7469" x2="456.8915" y1="191.4568" y2="186.2674"/><!--MD5=[b44033c84abd3c051898f9d7738a6f2a]
reverse link followings to users--><path d="M473.6428,191.4945 C473.8842,202.9635 473.5079,214.9099 472.5137,224.8886 " fill="none" id="followings&lt;-users-1" style="stroke: #383838; stroke-width: 0.6489226869455006;"/><line style="stroke: #383838; stroke-width: 0.6489226869455006;" x1="473.642" x2="468.2999" y1="191.4565" y2="186.2674"/><line style="stroke: #383838; stroke-width: 0.6489226869455006;" x1="473.642" x2="478.6782" y1="191.4565" y2="186.2674"/><line style="stroke: #383838; stroke-width: 0.6489226869455006;" x1="473.642" x2="473.489" y1="191.4565" y2="186.2674"/><!--MD5=[7ab8a6299fe6b442d79d1fe586d3c28f]
reverse link likes to users--><path d="M879.0826,74.2952 C861.2307,108.751 829.6282,159.1606 786.8188,186.2408 C737.877,217.1992 563.357,238.3038 493.836,245.6581 " fill="none" id="likes&lt;-users" style="stroke: #383838; stroke-width: 0.6489226869455006;"/><line style="stroke: #383838; stroke-width: 0.6489226869455006;" x1="879.1449" x2="876.888" y1="74.1647" y2="69.5431"/><line style="stroke: #383838; stroke-width: 0.6489226869455006;" x1="879.1449" x2="886.1311" y1="74.1647" y2="69.5431"/><line style="stroke: #383838; stroke-width: 0.6489226869455006;" x1="879.1449" x2="881.5096" y1="74.1647" y2="69.5431"/><!--MD5=[f0d4c0f9102afa637cc4f9edbe58e2fc]
reverse link likes to articles--><path d="M835.7605,72.1914 C810.6537,86.4936 781.7507,102.9607 757.5199,116.7665 " fill="none" id="likes&lt;-articles" style="stroke: #383838; stroke-width: 0.6489226869455006;"/><line style="stroke: #383838; stroke-width: 0.6489226869455006;" x1="835.8887" x2="837.832" y1="72.1152" y2="69.547"/><line style="stroke: #383838; stroke-width: 0.6489226869455006;" x1="835.8887" x2="842.9686" y1="72.1152" y2="69.547"/><line style="stroke: #383838; stroke-width: 0.6489226869455006;" x1="835.8887" x2="840.4003" y1="72.1152" y2="69.547"/><!--MD5=[ab74b54eeecbe98acac434dc1c2be725]
reverse link revisions to articles--><path d="M685.7166,73.0473 C689.422,87.1477 693.6464,103.2339 697.2025,116.7652 " fill="none" id="revisions&lt;-articles" style="stroke: #383838; stroke-width: 0.6489226869455006;"/><line style="stroke: #383838; stroke-width: 0.6489226869455006;" x1="685.6973" x2="679.3584" y1="72.9727" y2="67.9513"/><line style="stroke: #383838; stroke-width: 0.6489226869455006;" x1="685.6973" x2="689.4013" y1="72.9727" y2="67.9513"/><line style="stroke: #383838; stroke-width: 0.6489226869455006;" x1="685.6973" x2="684.3798" y1="72.9727" y2="67.9513"/></g></svg>